<svg width="75" height="51" viewBox="0 0 75 51" fill="none" xmlns="http://www.w3.org/2000/svg">
<path d="M56.1289 25.0992L58.6084 22.6197L61.0878 25.0992L58.6084 27.5786L56.1289 25.0992ZM46.0588 10.0701L58.6084 22.6197L53.6494 27.5786L41.0999 15.0291L46.0588 10.0701ZM58.6084 27.5786L46.0588 40.1282L41.0999 35.1692L53.6494 22.6197L58.6084 27.5786Z" fill="#00C853"/>
<path d="M31.3735 25.0992L33.853 22.6197L36.3325 25.0992L33.853 27.5786L31.3735 25.0992ZM21.3034 10.0702L33.853 22.6197L28.8941 27.5786L16.3445 15.0291L21.3034 10.0702ZM33.853 27.5786L21.3034 40.1282L16.3445 35.1693L28.8941 22.6197L33.853 27.5786Z" fill="#00C853"/>
</svg>
