<svg width="75" height="51" viewBox="0 0 75 51" fill="none" xmlns="http://www.w3.org/2000/svg">
<path d="M18.8711 25.0991L16.3916 27.5786L13.9122 25.0991L16.3916 22.6197L18.8711 25.0991ZM28.9412 40.1282L16.3916 27.5786L21.3506 22.6197L33.9001 35.1692L28.9412 40.1282ZM16.3916 22.6197L28.9412 10.0701L33.9001 15.029L21.3506 27.5786L16.3916 22.6197Z" fill="#FFD700"/>
<path d="M43.6265 25.0991L41.147 27.5786L38.6675 25.0991L41.147 22.6196L43.6265 25.0991ZM53.6966 40.1281L41.147 27.5786L46.1059 22.6196L58.6555 35.1692L53.6966 40.1281ZM41.147 22.6196L53.6966 10.0701L58.6555 15.029L46.1059 27.5786L41.147 22.6196Z" fill="#FFD700"/>
</svg>
