<svg width="64" height="43" viewBox="0 0 64 43" fill="none" xmlns="http://www.w3.org/2000/svg">
<path d="M16.0732 21.4312L13.9561 23.5483L11.839 21.4312L13.9561 19.3141L16.0732 21.4312ZM24.6717 34.2639L13.9561 23.5483L18.1904 19.3141L28.906 30.0297L24.6717 34.2639ZM13.9561 19.3141L24.6717 8.59848L28.906 12.8327L18.1904 23.5483L13.9561 19.3141Z" fill="#33C0FF"/>
<path d="M37.2109 21.4312L35.0938 23.5483L32.9767 21.4312L35.0938 19.3141L37.2109 21.4312ZM45.8094 34.2639L35.0938 23.5483L39.3281 19.3141L50.0437 30.0297L45.8094 34.2639ZM35.0938 19.3141L45.8094 8.59848L50.0437 12.8327L39.3281 23.5483L35.0938 19.3141Z" fill="#33C0FF"/>
</svg>
