<svg width="192" height="134" viewBox="0 0 192 134" fill="none" xmlns="http://www.w3.org/2000/svg">
<rect width="192" height="134" rx="43" fill="white"/>
<mask id="mask0_283_1037" style="mask-type:alpha" maskUnits="userSpaceOnUse" x="40" y="16" width="111" height="103">
<rect x="40" y="16" width="111" height="102.462" fill="#C4C4C4"/>
</mask>
<g mask="url(#mask0_283_1037)">
<path d="M65.0425 52.8073H45.6936V46.4585H54.0731C54.2332 46.4585 54.3666 46.3084 54.3666 46.1884V42.3771C54.3666 42.2271 54.2332 42.107 54.0731 42.107H45.6936V36.6752H51.7514V32.3237H41.9041C41.744 32.3237 41.6106 32.4738 41.6106 32.5938V56.6931C41.6106 56.8131 41.744 56.9632 41.9041 56.9632H65.0425V52.8073Z" fill="black"/>
<path d="M88.4349 49.216H82.4124V44.5992H90.7431C90.9023 44.5992 91.0349 44.4709 91.0349 44.3683V41.1109C91.0349 40.9827 90.9023 40.8801 90.7431 40.8801H82.4124V36.2376H88.4349V32.5185H78.4039C78.2447 32.5185 78.1121 32.6467 78.1121 32.7493V52.8068C78.1121 52.9094 78.2447 53.0377 78.4039 53.0377H88.4349V49.216Z" fill="black"/>
<path d="M107.926 52.7042C106.599 49.8572 105.167 47.0358 103.84 44.1375C105.963 43.3937 107.74 41.7521 107.74 38.6229C107.74 32.5698 101.771 32.5185 100.577 32.5185H93.7055C93.5728 32.5185 93.4401 32.6467 93.4401 32.7493V36.2376H97.4728H100.577C101.214 36.2376 103.708 36.3658 103.708 38.6229C103.708 40.8801 101.452 40.9827 100.577 40.9827H97.4728H93.4401V52.8068C93.4401 52.9094 93.5728 53.0377 93.7055 53.0377H97.181C97.3402 53.0377 97.4728 52.9094 97.4728 52.8068V44.7531H99.7544L103.628 52.8838C103.654 52.9607 103.814 53.0377 103.893 53.0377H107.687C107.899 53.0377 108.006 52.8838 107.926 52.7042Z" fill="black"/>
<rect x="93.4541" y="32.6596" width="4.34139" height="11.7614" fill="black"/>
<path d="M116.852 99.2314H110.526V94.4015H119.277C119.444 94.4015 119.583 94.2674 119.583 94.16V90.7523C119.583 90.6181 119.444 90.5108 119.277 90.5108H110.526V85.6541H116.852V81.7633H106.316C106.148 81.7633 106.009 81.8975 106.009 82.0048V102.988C106.009 103.095 106.148 103.23 106.316 103.23H116.852V99.2314Z" fill="black"/>
<path d="M84.408 60.8973V57.2034C84.408 57.0963 84.3001 56.9625 84.1113 56.9625H80.6048C75.2373 56.9625 67.9546 58.515 67.9546 67.6695C67.9546 77.172 75.3182 78.3765 80.6048 78.3765H84.1113C84.3001 78.3765 84.408 78.2427 84.408 78.1356V69.7306V69.1149V65.0195H80.2812H80.3106V69.1149H80.2812V69.7306V74.4685C75.5879 74.7094 72.1084 72.7553 72.1084 67.6695C72.1084 61.0579 77.6648 60.7902 80.2812 60.8973H84.408Z" fill="black"/>
<path d="M107.089 74.3882H91.2801V69.57H99.7496C99.9114 69.57 100.046 69.4362 100.046 69.3291V65.9296C100.046 65.7958 99.9114 65.6887 99.7496 65.6887H91.2801V60.8438H97.4029V56.9625H87.45C87.2881 56.9625 87.1533 57.0963 87.1533 57.2034V78.1356C87.1533 78.2427 87.2881 78.3765 87.45 78.3765H107.089V74.3882Z" fill="black"/>
<path d="M120.861 57.1913H117.382C117.193 57.1913 117.058 57.3251 117.058 57.4322V71.1493L107.105 57.0428C107.078 56.9892 106.916 56.9625 106.862 56.9625H103.275C103.14 56.9625 103.005 57.0963 103.005 57.2034V72.1452H107.132V64.1897L117.058 78.2962C117.085 78.3498 117.247 78.3765 117.301 78.3765H120.861C121.05 78.3765 121.158 78.2427 121.158 78.1356V57.4322C121.158 57.3251 121.05 57.1913 120.861 57.1913Z" fill="black"/>
<path d="M94.5229 85.1454V102.988C94.5229 103.095 94.6311 103.23 94.8203 103.23H98.3074C98.4966 103.23 98.6318 103.095 98.6318 102.988V85.1454H94.5229ZM88.3125 85.6812H103.817C104.007 85.6812 104.115 85.5738 104.115 85.4397V82.0048C104.115 81.8975 104.007 81.7633 103.817 81.7633H88.3125C88.1503 81.7633 88.0151 81.8975 88.0151 82.0048V85.4397C88.0151 85.5738 88.1503 85.6812 88.3125 85.6812Z" fill="black"/>
<mask id="mask1_283_1037" style="mask-type:alpha" maskUnits="userSpaceOnUse" x="135" y="102" width="25" height="24">
<path d="M142.519 125.712L135.624 102.959L159.984 105.099L142.519 125.712Z" fill="#C4C4C4"/>
</mask>
<g mask="url(#mask1_283_1037)">
<path d="M132.827 118.784L132.233 114.912C140.142 115.859 148.689 107.315 145.667 98.4207L149.636 96.9181C152.828 110.299 143.175 118.85 132.827 118.784Z" fill="#33C0FF"/>
</g>
<path d="M126.572 114.365L125.978 110.493C133.887 111.44 142.434 102.896 139.412 94.0019L143.381 92.4992C146.574 105.881 136.92 114.432 126.572 114.365Z" fill="#33C0FF"/>
<mask id="mask2_283_1037" style="mask-type:alpha" maskUnits="userSpaceOnUse" x="105" y="7" width="24" height="25">
<path d="M128.011 23.5601L105.709 31.7981L106.394 7.35324L128.011 23.5601Z" fill="#C4C4C4"/>
</mask>
<g mask="url(#mask2_283_1037)">
<path d="M121.673 33.6467L117.843 34.4711C118.317 26.5191 109.279 18.4969 100.58 22.0433L98.844 18.1709C112.011 14.1866 121.122 23.3137 121.673 33.6467Z" fill="#00C853"/>
</g>
<path d="M117.633 40.1527L113.803 40.9771C114.277 33.0251 105.24 25.0029 96.5412 28.5493L94.8047 24.6769C107.972 20.6926 117.083 29.8197 117.633 40.1527Z" fill="#00C853"/>
<mask id="mask3_283_1037" style="mask-type:alpha" maskUnits="userSpaceOnUse" x="44" y="78" width="25" height="24">
<path d="M44.5787 79.1878L68.3409 78.4168L59.9691 101.394L44.5787 79.1878Z" fill="#C4C4C4"/>
</mask>
<g mask="url(#mask3_283_1037)">
<path d="M53.7783 71.6191L57.6728 72.0469C54.7109 79.4419 60.7514 89.9083 70.125 89.2914L70.5492 93.514C56.7975 93.1347 51.0364 81.5968 53.7783 71.6191Z" fill="#BF43D4"/>
</g>
<path d="M59.666 66.722L63.5605 67.1498C60.5986 74.5448 66.6391 85.0112 76.0127 84.3943L76.4369 88.6169C62.6852 88.2376 56.9241 76.6998 59.666 66.722Z" fill="#BF43D4"/>
<path d="M130.474 87.446L133.157 84.9206C129.369 79.2383 120.688 81.4481 120.688 87.446C120.688 93.4439 129.842 93.7596 130.158 97.0742C130.474 100.389 126.528 100.073 125.265 99.284C124.002 98.4948 122.898 96.7585 122.898 96.7585L120.688 99.9153C120.688 99.9153 122.108 103.546 127.159 103.704C132.21 103.861 135.209 98.8105 133.631 94.7066C132.052 90.6028 124.949 90.1293 124.792 87.446C124.634 84.7627 129.053 84.6049 130.474 87.446Z" fill="black"/>
<path d="M56.7629 49.9666V32.5181H61.4981L66.2333 43.0886L70.8107 32.5181H75.0724V53.0373H70.8107V43.0886L68.1274 49.6987H64.3392L61.4981 43.0886V49.9666H56.7629Z" fill="black"/>
</g>
</svg>
