<svg width="393" height="363" viewBox="0 0 393 363" fill="none" xmlns="http://www.w3.org/2000/svg">
<mask id="mask0_133_876" style="mask-type:alpha" maskUnits="userSpaceOnUse" x="0" y="0" width="393" height="363">
<rect width="393" height="362.769" fill="#C4C4C4"/>
</mask>
<g mask="url(#mask0_133_876)">
<path d="M88.6635 130.318H20.1579V107.84H49.8257C50.3926 107.84 50.8651 107.308 50.8651 106.883V93.3894C50.8651 92.8581 50.3926 92.4331 49.8257 92.4331H20.1579V73.2015H41.6057V57.795H6.74125C6.17435 57.795 5.70192 58.3262 5.70192 58.7512V144.076C5.70192 144.501 6.17435 145.032 6.74125 145.032H88.6635V130.318Z" fill="black"/>
<path d="M171.486 117.602H150.163V101.256H179.658C180.222 101.256 180.691 100.802 180.691 100.439V88.906C180.691 88.4519 180.222 88.0887 179.658 88.0887H150.163V71.6519H171.486V58.4843H135.971C135.407 58.4843 134.937 58.9383 134.937 59.3015V130.316C134.937 130.679 135.407 131.133 135.971 131.133H171.486V117.602Z" fill="black"/>
<path d="M240.494 129.953C235.798 119.873 230.725 109.883 226.029 99.6217C233.543 96.9882 239.837 91.1763 239.837 80.0973C239.837 58.6659 218.702 58.4843 214.475 58.4843H190.146C189.677 58.4843 189.207 58.9383 189.207 59.3015V71.6519H203.485H214.475C216.729 71.6519 225.559 72.1059 225.559 80.0973C225.559 88.0887 217.575 88.4519 214.475 88.4519H203.485H189.207V130.316C189.207 130.679 189.677 131.133 190.146 131.133H202.452C203.015 131.133 203.485 130.679 203.485 130.316V101.801H211.563L225.277 130.588C225.371 130.861 225.935 131.133 226.217 131.133H239.649C240.401 131.133 240.776 130.588 240.494 129.953Z" fill="black"/>
<rect x="189.257" y="58.9843" width="15.3709" height="41.6417" fill="black"/>
<path d="M272.098 294.684H249.701V277.584H280.682C281.274 277.584 281.768 277.109 281.768 276.729V264.664C281.768 264.189 281.274 263.809 280.682 263.809H249.701V246.613H272.098V232.838H234.793C234.201 232.838 233.707 233.313 233.707 233.693V307.985C233.707 308.365 234.201 308.84 234.793 308.84H272.098V294.684Z" fill="black"/>
<path d="M157.228 158.961V145.882C157.228 145.503 156.846 145.029 156.178 145.029H143.763C124.759 145.029 98.9745 150.526 98.9745 182.938C98.9745 216.582 125.046 220.847 143.763 220.847H156.178C156.846 220.847 157.228 220.373 157.228 219.994V190.236V188.056V173.556H142.617H142.721V188.056H142.617V190.236V207.01C126.001 207.863 113.681 200.945 113.681 182.938C113.681 159.53 133.354 158.582 142.617 158.961H157.228Z" fill="black"/>
<path d="M237.531 206.726H181.559V189.667H211.546C212.119 189.667 212.596 189.193 212.596 188.814V176.778C212.596 176.304 212.119 175.925 211.546 175.925H181.559V158.771H203.238V145.029H167.999C167.426 145.029 166.948 145.503 166.948 145.882V219.994C166.948 220.373 167.426 220.847 167.999 220.847H237.531V206.726Z" fill="black"/>
<path d="M286.292 145.84H273.973C273.304 145.84 272.827 146.313 272.827 146.693V195.258L237.588 145.314C237.492 145.124 236.919 145.029 236.728 145.029H224.027C223.55 145.029 223.072 145.503 223.072 145.882V198.785H237.683V170.618L272.827 220.563C272.922 220.752 273.495 220.847 273.686 220.847H286.292C286.96 220.847 287.342 220.373 287.342 219.994V146.693C287.342 146.313 286.96 145.84 286.292 145.84Z" fill="black"/>
<path d="M193.041 244.812V307.985C193.041 308.365 193.423 308.84 194.093 308.84H206.44C207.11 308.84 207.588 308.365 207.588 307.985V244.812H193.041ZM171.052 246.709H225.948C226.618 246.709 227.001 246.329 227.001 245.854V233.693C227.001 233.313 226.618 232.838 225.948 232.838H171.052C170.478 232.838 170 233.313 170 233.693V245.854C170 246.329 170.478 246.709 171.052 246.709Z" fill="black"/>
<mask id="mask1_133_876" style="mask-type:alpha" maskUnits="userSpaceOnUse" x="338" y="307" width="87" height="82">
<path d="M362.97 388.439L338.559 307.882L424.809 315.457L362.97 388.439Z" fill="#C4C4C4"/>
</mask>
<g mask="url(#mask1_133_876)">
<path d="M328.658 363.912L326.552 350.201C354.557 353.554 384.815 323.305 374.116 291.814L388.168 286.493C399.473 333.87 365.294 364.146 328.658 363.912Z" fill="#33C0FF"/>
</g>
<path d="M306.513 348.267L304.408 334.556C332.412 337.909 362.671 307.66 351.971 276.169L366.024 270.848C377.328 318.225 343.149 348.501 306.513 348.267Z" fill="#33C0FF"/>
<mask id="mask2_133_876" style="mask-type:alpha" maskUnits="userSpaceOnUse" x="232" y="-31" width="80" height="87">
<path d="M311.605 26.767L232.644 55.9339L235.069 -30.6142L311.605 26.767Z" fill="#C4C4C4"/>
</mask>
<g mask="url(#mask2_133_876)">
<path d="M289.166 62.4788L275.605 65.3976C277.284 37.2433 245.286 8.84028 214.488 21.3965L208.34 7.68612C254.959 -6.42055 287.217 25.8944 289.166 62.4788Z" fill="#00C853"/>
</g>
<path d="M274.866 85.5139L261.305 88.4326C262.984 60.2784 230.986 31.8754 200.188 44.4316L194.04 30.7212C240.659 16.6145 272.917 48.9295 274.866 85.5139Z" fill="#00C853"/>
<mask id="mask3_133_876" style="mask-type:alpha" maskUnits="userSpaceOnUse" x="16" y="220" width="85" height="83">
<path d="M16.2117 223.719L100.343 220.989L70.702 302.34L16.2117 223.719Z" fill="#C4C4C4"/>
</mask>
<g mask="url(#mask3_133_876)">
<path d="M48.783 196.922L62.5716 198.437C52.0848 224.619 73.4714 261.675 106.659 259.491L108.161 274.442C59.4724 273.099 39.0751 232.249 48.783 196.922Z" fill="#BF43D4"/>
</g>
<path d="M69.6286 179.584L83.4171 181.098C72.9303 207.281 94.3169 244.337 127.505 242.153L129.006 257.104C80.3179 255.761 59.9206 214.91 69.6286 179.584Z" fill="#BF43D4"/>
<path d="M320.327 252.957L329.827 244.016C316.415 223.898 285.679 231.722 285.679 252.957C285.679 274.193 318.091 275.311 319.209 287.047C320.327 298.782 306.356 297.665 301.885 294.87C297.414 292.076 293.503 285.929 293.503 285.929L285.679 297.106C285.679 297.106 290.708 309.959 308.591 310.518C326.474 311.077 337.092 293.194 331.504 278.664C325.915 264.134 300.767 262.458 300.209 252.957C299.65 243.457 315.297 242.898 320.327 252.957Z" fill="black"/>
<path d="M59.3498 120.26V58.4832H76.1149L92.8801 95.9084L109.086 58.4832H124.175V131.132H109.086V95.9084L99.5861 119.312H86.174L76.1149 95.9084V120.26H59.3498Z" fill="black"/>
</g>
</svg>
