<svg width="111" height="103" viewBox="0 0 111 103" fill="none" xmlns="http://www.w3.org/2000/svg">
<mask id="mask0_283_909" style="mask-type:alpha" maskUnits="userSpaceOnUse" x="0" y="0" width="111" height="103">
<rect width="111" height="102.462" fill="#C4C4C4"/>
</mask>
<g mask="url(#mask0_283_909)">
<path d="M25.0423 36.8073H5.69334V30.4585H14.0728C14.2329 30.4585 14.3664 30.3084 14.3664 30.1884V26.3771C14.3664 26.2271 14.2329 26.107 14.0728 26.107H5.69334V20.6752H11.7511V16.3237H1.9039C1.74379 16.3237 1.61035 16.4738 1.61035 16.5938V40.6931C1.61035 40.8131 1.74379 40.9632 1.9039 40.9632H25.0423V36.8073Z" fill="black"/>
<path d="M48.4352 33.216H42.4127V28.5992H50.7433C50.9025 28.5992 51.0352 28.4709 51.0352 28.3683V25.1109C51.0352 24.9827 50.9025 24.8801 50.7433 24.8801H42.4127V20.2376H48.4352V16.5185H38.4041C38.245 16.5185 38.1123 16.6467 38.1123 16.7493V36.8068C38.1123 36.9094 38.245 37.0377 38.4041 37.0377H48.4352V33.216Z" fill="black"/>
<path d="M67.9262 36.7042C66.5996 33.8572 65.167 31.0358 63.8404 28.1375C65.9629 27.3937 67.7405 25.7521 67.7405 22.6229C67.7405 16.5698 61.771 16.5185 60.5772 16.5185H53.7057C53.5731 16.5185 53.4404 16.6467 53.4404 16.7493V20.2376H57.4731H60.5772C61.2139 20.2376 63.7078 20.3658 63.7078 22.6229C63.7078 24.8801 61.4527 24.9827 60.5772 24.9827H57.4731H53.4404V36.8068C53.4404 36.9094 53.5731 37.0377 53.7057 37.0377H57.1812C57.3404 37.0377 57.4731 36.9094 57.4731 36.8068V28.7531H59.7547L63.6282 36.8838C63.6547 36.9607 63.8139 37.0377 63.8935 37.0377H67.6874C67.8996 37.0377 68.0058 36.8838 67.9262 36.7042Z" fill="black"/>
<rect x="53.4546" y="16.6596" width="4.34139" height="11.7614" fill="black"/>
<path d="M76.852 83.2314H70.5259V78.4015H79.2765C79.4437 78.4015 79.583 78.2674 79.583 78.16V74.7523C79.583 74.6181 79.4437 74.5108 79.2765 74.5108H70.5259V69.6541H76.852V65.7633H66.3153C66.1481 65.7633 66.0088 65.8975 66.0088 66.0048V86.988C66.0088 87.0954 66.1481 87.2295 66.3153 87.2295H76.852V83.2314Z" fill="black"/>
<path d="M44.408 44.8973V41.2034C44.408 41.0963 44.3001 40.9625 44.1113 40.9625H40.6048C35.2373 40.9625 27.9546 42.515 27.9546 51.6695C27.9546 61.172 35.3182 62.3765 40.6048 62.3765H44.1113C44.3001 62.3765 44.408 62.2427 44.408 62.1356V53.7306V53.1149V49.0195H40.2812H40.3106V53.1149H40.2812V53.7306V58.4685C35.5879 58.7094 32.1084 56.7553 32.1084 51.6695C32.1084 45.0579 37.6648 44.7902 40.2812 44.8973H44.408Z" fill="black"/>
<path d="M67.0888 58.3882H51.2801V53.57H59.7496C59.9114 53.57 60.0463 53.4362 60.0463 53.3291V49.9296C60.0463 49.7958 59.9114 49.6887 59.7496 49.6887H51.2801V44.8438H57.4029V40.9625H47.45C47.2881 40.9625 47.1533 41.0963 47.1533 41.2034V62.1356C47.1533 62.2427 47.2881 62.3765 47.45 62.3765H67.0888V58.3882Z" fill="black"/>
<path d="M80.8611 41.1913H77.3816C77.1928 41.1913 77.0579 41.3251 77.0579 41.4322V55.1493L67.1049 41.0428C67.0779 40.9892 66.9161 40.9625 66.8622 40.9625H63.2748C63.1399 40.9625 63.005 41.0963 63.005 41.2034V56.1452H67.1319V48.1897L77.0579 62.2962C77.0849 62.3498 77.2467 62.3765 77.3006 62.3765H80.8611C81.0499 62.3765 81.1578 62.2427 81.1578 62.1356V41.4322C81.1578 41.3251 81.0499 41.1913 80.8611 41.1913Z" fill="black"/>
<path d="M54.5229 69.1454V86.988C54.5229 87.0954 54.6311 87.2295 54.8203 87.2295H58.3074C58.4966 87.2295 58.6318 87.0954 58.6318 86.988V69.1454H54.5229ZM48.3125 69.6812H63.8174C64.0067 69.6812 64.1148 69.5738 64.1148 69.4397V66.0048C64.1148 65.8975 64.0067 65.7633 63.8174 65.7633H48.3125C48.1503 65.7633 48.0151 65.8975 48.0151 66.0048V69.4397C48.0151 69.5738 48.1503 69.6812 48.3125 69.6812Z" fill="black"/>
<mask id="mask1_283_909" style="mask-type:alpha" maskUnits="userSpaceOnUse" x="95" y="86" width="25" height="24">
<path d="M102.519 109.712L95.6238 86.959L119.984 89.0987L102.519 109.712Z" fill="#C4C4C4"/>
</mask>
<g mask="url(#mask1_283_909)">
<path d="M92.8276 102.784L92.2328 98.9118C100.142 99.8589 108.689 91.3153 105.667 82.4207L109.636 80.9181C112.829 94.2994 103.175 102.85 92.8276 102.784Z" fill="#33C0FF"/>
</g>
<path d="M86.5727 98.3655L85.978 94.493C93.8876 95.44 102.434 86.8965 99.412 78.0019L103.381 76.4992C106.574 89.8806 96.9201 98.4316 86.5727 98.3655Z" fill="#33C0FF"/>
<mask id="mask2_283_909" style="mask-type:alpha" maskUnits="userSpaceOnUse" x="65" y="-9" width="24" height="25">
<path d="M88.0106 7.56014L65.7088 15.7981L66.3935 -8.64676L88.0106 7.56014Z" fill="#C4C4C4"/>
</mask>
<g mask="url(#mask2_283_909)">
<path d="M81.673 17.6467L77.8428 18.4711C78.317 10.5191 69.2795 2.49686 60.5807 6.04327L58.8443 2.17088C72.0116 -1.81345 81.1225 7.31368 81.673 17.6467Z" fill="#00C853"/>
</g>
<path d="M77.6334 24.1527L73.8032 24.9771C74.2774 17.0251 65.2399 9.00291 56.5412 12.5493L54.8047 8.67692C67.9721 4.6926 77.083 13.8197 77.6334 24.1527Z" fill="#00C853"/>
<mask id="mask3_283_909" style="mask-type:alpha" maskUnits="userSpaceOnUse" x="4" y="62" width="25" height="24">
<path d="M4.57898 63.1878L28.3412 62.4168L19.9694 85.3937L4.57898 63.1878Z" fill="#C4C4C4"/>
</mask>
<g mask="url(#mask3_283_909)">
<path d="M13.7786 55.6191L17.6731 56.0469C14.7111 63.4419 20.7516 73.9083 30.1252 73.2914L30.5495 77.514C16.7977 77.1347 11.0366 65.5968 13.7786 55.6191Z" fill="#BF43D4"/>
</g>
<path d="M19.6663 50.722L23.5608 51.1498C20.5988 58.5448 26.6393 69.0112 36.0129 68.3943L36.4371 72.6169C22.6854 72.2376 16.9243 60.6998 19.6663 50.722Z" fill="#BF43D4"/>
<path d="M90.4741 71.446L93.1573 68.9206C89.3692 63.2383 80.688 65.4481 80.688 71.446C80.688 77.4439 89.8427 77.7596 90.1584 81.0742C90.4741 84.3889 86.5281 84.0732 85.2653 83.284C84.0026 82.4948 82.8977 80.7585 82.8977 80.7585L80.688 83.9153C80.688 83.9153 82.1085 87.5457 87.1594 87.7035C92.2103 87.8613 95.2093 82.8105 93.6309 78.7066C92.0525 74.6028 84.9497 74.1293 84.7918 71.446C84.634 68.7627 89.0535 68.6049 90.4741 71.446Z" fill="black"/>
<path d="M16.7627 33.9666V16.5181H21.4979L26.2331 27.0886L30.8104 16.5181H35.0721V37.0373H30.8104V27.0886L28.1272 33.6987H24.339L21.4979 27.0886V33.9666H16.7627Z" fill="black"/>
</g>
</svg>
