<svg width="628" height="119" viewBox="0 0 628 119" fill="none" xmlns="http://www.w3.org/2000/svg">
<path d="M9.71716 43.78V74.1205H0.203613V43.78H9.71716Z" fill="#BF43D4"/>
<path d="M45.2543 74.1205H35.7408L25.6702 58.8645V74.1205H16.1566V43.78H25.6702L35.7408 59.293V43.78H45.2543V74.1205Z" fill="#BF43D4"/>
<path d="M80.7929 74.1205H71.2793L61.2087 58.8645V74.1205H51.6951V43.78H61.2087L71.2793 59.293V43.78H80.7929V74.1205Z" fill="#BF43D4"/>
<path d="M102.018 74.4204C99.1613 74.4204 96.5329 73.7491 94.1331 72.4063C91.7619 71.0636 89.8763 69.2066 88.4764 66.8353C87.0765 64.4641 86.3766 61.7928 86.3766 58.8216C86.3766 55.8505 87.0765 53.1792 88.4764 50.808C89.8763 48.4367 91.7619 46.594 94.1331 45.2798C96.5329 43.9371 99.1613 43.2657 102.018 43.2657C104.875 43.2657 107.489 43.9371 109.86 45.2798C112.232 46.594 114.103 48.4367 115.474 50.808C116.874 53.1792 117.574 55.8505 117.574 58.8216C117.574 61.7928 116.874 64.4641 115.474 66.8353C114.103 69.2066 112.217 71.0636 109.818 72.4063C107.446 73.7491 104.847 74.4204 102.018 74.4204ZM102.018 65.5497C103.904 65.5497 105.361 64.9497 106.389 63.7498C107.418 62.5214 107.932 60.8786 107.932 58.8216C107.932 56.7361 107.418 55.0934 106.389 53.8935C105.361 52.665 103.904 52.0507 102.018 52.0507C100.104 52.0507 98.6328 52.665 97.6043 53.8935C96.5758 55.0934 96.0615 56.7361 96.0615 58.8216C96.0615 60.8786 96.5758 62.5214 97.6043 63.7498C98.6328 64.9497 100.104 65.5497 102.018 65.5497Z" fill="#BF43D4"/>
<path d="M153.704 43.78L143.504 74.1205H131.205L121.006 43.78H131.12L137.376 64.6498L143.59 43.78H153.704Z" fill="#BF43D4"/>
<path d="M177.432 69.5351H167.318L165.818 74.1205H155.833L166.932 43.78H177.903L188.959 74.1205H178.931L177.432 69.5351ZM175.117 62.3785L172.375 53.9363L169.632 62.3785H175.117Z" fill="#BF43D4"/>
<path d="M192.406 58.9074C192.406 55.9076 193.006 53.2364 194.206 50.8937C195.435 48.551 197.177 46.7369 199.434 45.4513C201.691 44.1371 204.348 43.48 207.405 43.48C210.033 43.48 212.376 43.9799 214.433 44.9799C216.519 45.9512 218.204 47.3368 219.49 49.1367C220.804 50.9365 221.675 53.0364 222.104 55.4362H212.076C211.619 54.4363 210.962 53.6649 210.105 53.1221C209.276 52.5507 208.319 52.265 207.234 52.265C205.634 52.265 204.362 52.865 203.42 54.0649C202.505 55.2648 202.048 56.8789 202.048 58.9074C202.048 60.9358 202.505 62.5499 203.42 63.7498C204.362 64.9497 205.634 65.5497 207.234 65.5497C208.319 65.5497 209.276 65.2783 210.105 64.7355C210.962 64.1641 211.619 63.3784 212.076 62.3785H222.104C221.675 64.7783 220.804 66.8782 219.49 68.678C218.204 70.4779 216.519 71.8778 214.433 72.8777C212.376 73.849 210.033 74.3347 207.405 74.3347C204.348 74.3347 201.691 73.6919 199.434 72.4063C197.177 71.0921 195.435 69.2637 194.206 66.921C193.006 64.5783 192.406 61.9071 192.406 58.9074Z" fill="#BF43D4"/>
<path d="M237.185 43.78V74.1205H227.672V43.78H237.185Z" fill="#BF43D4"/>
<path d="M258.409 74.4204C255.553 74.4204 252.924 73.7491 250.524 72.4063C248.153 71.0636 246.268 69.2066 244.868 66.8353C243.468 64.4641 242.768 61.7928 242.768 58.8216C242.768 55.8505 243.468 53.1792 244.868 50.808C246.268 48.4367 248.153 46.594 250.524 45.2798C252.924 43.9371 255.553 43.2657 258.409 43.2657C261.266 43.2657 263.88 43.9371 266.252 45.2798C268.623 46.594 270.494 48.4367 271.866 50.808C273.265 53.1792 273.965 55.8505 273.965 58.8216C273.965 61.7928 273.265 64.4641 271.866 66.8353C270.494 69.2066 268.609 71.0636 266.209 72.4063C263.838 73.7491 261.238 74.4204 258.409 74.4204ZM258.409 65.5497C260.295 65.5497 261.752 64.9497 262.781 63.7498C263.809 62.5214 264.323 60.8786 264.323 58.8216C264.323 56.7361 263.809 55.0934 262.781 53.8935C261.752 52.665 260.295 52.0507 258.409 52.0507C256.495 52.0507 255.024 52.665 253.996 53.8935C252.967 55.0934 252.453 56.7361 252.453 58.8216C252.453 60.8786 252.967 62.5214 253.996 63.7498C255.024 64.9497 256.495 65.5497 258.409 65.5497ZM263.895 37.9947L252.796 42.023V35.6806L263.895 30.9667V37.9947Z" fill="#BF43D4"/>
<path d="M308.638 74.1205H299.124L289.054 58.8645V74.1205H279.54V43.78H289.054L299.124 59.293V43.78H308.638V74.1205Z" fill="#BF43D4"/>
<path d="M353.644 43.78L342.759 64.9069V74.1205H333.245V64.9069L322.36 43.78H333.245L338.088 54.5363L342.93 43.78H353.644Z" fill="#BF43D4"/>
<path d="M376.887 66.921H386.058V74.1205H367.374V43.78H376.887V66.921Z" fill="#BF43D4"/>
<path d="M400.708 43.78V74.1205H391.194V43.78H400.708Z" fill="#BF43D4"/>
<path d="M419.789 43.78C422.96 43.78 425.732 44.4228 428.103 45.7084C430.503 46.994 432.345 48.7796 433.631 51.0651C434.917 53.3506 435.559 55.9504 435.559 58.8645C435.559 61.75 434.917 64.3498 433.631 66.6639C432.345 68.978 430.503 70.8064 428.103 72.1492C425.732 73.4634 422.96 74.1205 419.789 74.1205H407.147V43.78H419.789ZM418.932 65.6354C421.075 65.6354 422.775 65.0497 424.032 63.8784C425.289 62.7071 425.917 61.0358 425.917 58.8645C425.917 56.6932 425.289 55.0219 424.032 53.8506C422.775 52.6793 421.075 52.0936 418.932 52.0936H416.661V65.6354H418.932Z" fill="#BF43D4"/>
<path d="M450.651 51.3651V55.0934H460.079V62.25H450.651V66.5353H461.364V74.1205H441.137V43.78H461.364V51.3651H450.651Z" fill="#BF43D4"/>
<path d="M482.348 74.1205L476.649 63.2356H476.606V74.1205H467.092V43.78H481.234C483.691 43.78 485.791 44.2228 487.534 45.1084C489.276 45.9655 490.576 47.1511 491.433 48.6653C492.319 50.1509 492.762 51.8365 492.762 53.722C492.762 55.7505 492.191 57.5503 491.048 59.1216C489.934 60.6929 488.319 61.8214 486.205 62.5071L492.805 74.1205H482.348ZM476.606 56.8932H480.377C481.291 56.8932 481.977 56.6932 482.434 56.2933C482.891 55.8647 483.12 55.2076 483.12 54.322C483.12 53.5221 482.877 52.8935 482.391 52.4364C481.934 51.9793 481.263 51.7508 480.377 51.7508H476.606V56.8932Z" fill="#BF43D4"/>
<path d="M517.399 69.5351H507.286L505.786 74.1205H495.801L506.9 43.78H517.871L528.927 74.1205H518.899L517.399 69.5351ZM515.085 62.3785L512.343 53.9363L509.6 62.3785H515.085Z" fill="#BF43D4"/>
<path d="M543.773 66.5353H555.944V74.1205H533.231V66.9639L545.23 51.3222H533.231V43.78H555.944V50.9366L543.773 66.5353Z" fill="#BF43D4"/>
<path d="M580.965 54.1506C580.594 53.5506 580.065 53.0935 579.38 52.7793C578.694 52.4364 577.866 52.265 576.894 52.265C575.066 52.265 573.652 52.865 572.652 54.0649C571.652 55.2362 571.152 56.8504 571.152 58.9074C571.152 61.2786 571.709 63.0499 572.823 64.2212C573.937 65.3926 575.651 65.9782 577.966 65.9782C580.165 65.9782 581.937 65.0926 583.279 63.3213H575.694V56.5933H591.165V66.1068C589.85 68.3638 588.036 70.3065 585.722 71.9349C583.408 73.5348 580.48 74.3347 576.937 74.3347C573.795 74.3347 571.052 73.6919 568.709 72.4063C566.395 71.0921 564.61 69.2637 563.352 66.921C562.124 64.5783 561.51 61.9071 561.51 58.9074C561.51 55.9076 562.124 53.2364 563.352 50.8937C564.61 48.551 566.395 46.7369 568.709 45.4513C571.023 44.1371 573.737 43.48 576.851 43.48C580.822 43.48 584.051 44.4371 586.536 46.3512C589.05 48.2653 590.536 50.8651 590.993 54.1506H580.965Z" fill="#BF43D4"/>
<path d="M611.518 74.4204C608.661 74.4204 606.033 73.7491 603.633 72.4063C601.262 71.0636 599.376 69.2066 597.976 66.8353C596.576 64.4641 595.876 61.7928 595.876 58.8216C595.876 55.8505 596.576 53.1792 597.976 50.808C599.376 48.4367 601.262 46.594 603.633 45.2798C606.033 43.9371 608.661 43.2657 611.518 43.2657C614.375 43.2657 616.989 43.9371 619.36 45.2798C621.732 46.594 623.603 48.4367 624.974 50.808C626.374 53.1792 627.074 55.8505 627.074 58.8216C627.074 61.7928 626.374 64.4641 624.974 66.8353C623.603 69.2066 621.717 71.0636 619.317 72.4063C616.946 73.7491 614.346 74.4204 611.518 74.4204ZM611.518 65.5497C613.404 65.5497 614.861 64.9497 615.889 63.7498C616.918 62.5214 617.432 60.8786 617.432 58.8216C617.432 56.7361 616.918 55.0934 615.889 53.8935C614.861 52.665 613.404 52.0507 611.518 52.0507C609.604 52.0507 608.133 52.665 607.104 53.8935C606.076 55.0934 605.561 56.7361 605.561 58.8216C605.561 60.8786 606.076 62.5214 607.104 63.7498C608.133 64.9497 609.604 65.5497 611.518 65.5497Z" fill="#BF43D4"/>
<path d="M111.635 7.745V11.579H117.818V15.143H111.635V19.301H118.628V23H107.018V4.046H118.628V7.745H111.635Z" fill="black"/>
<path d="M132.155 7.772C133.919 7.772 135.323 8.348 136.367 9.5C137.429 10.634 137.96 12.2 137.96 14.198V23H133.37V14.819C133.37 13.811 133.109 13.028 132.587 12.47C132.065 11.912 131.363 11.633 130.481 11.633C129.599 11.633 128.897 11.912 128.375 12.47C127.853 13.028 127.592 13.811 127.592 14.819V23H122.975V7.934H127.592V9.932C128.06 9.266 128.69 8.74399 129.482 8.36599C130.274 7.97 131.165 7.772 132.155 7.772Z" fill="black"/>
<path d="M141.6 15.467C141.6 13.901 141.915 12.533 142.545 11.363C143.193 10.193 144.084 9.293 145.218 8.663C146.37 8.03299 147.684 7.71799 149.16 7.71799C151.05 7.71799 152.625 8.213 153.885 9.203C155.163 10.193 156 11.588 156.396 13.388H151.482C151.068 12.236 150.267 11.66 149.079 11.66C148.233 11.66 147.558 11.993 147.054 12.659C146.55 13.307 146.298 14.243 146.298 15.467C146.298 16.691 146.55 17.636 147.054 18.302C147.558 18.95 148.233 19.274 149.079 19.274C150.267 19.274 151.068 18.698 151.482 17.546H156.396C156 19.31 155.163 20.696 153.885 21.704C152.607 22.712 151.032 23.216 149.16 23.216C147.684 23.216 146.37 22.901 145.218 22.271C144.084 21.641 143.193 20.741 142.545 19.571C141.915 18.401 141.6 17.033 141.6 15.467Z" fill="black"/>
<path d="M175.093 7.934V23H170.476V20.948C170.008 21.614 169.369 22.154 168.559 22.568C167.767 22.964 166.885 23.162 165.913 23.162C164.761 23.162 163.744 22.91 162.862 22.406C161.98 21.884 161.296 21.137 160.81 20.165C160.324 19.193 160.081 18.05 160.081 16.736V7.934H164.671V16.115C164.671 17.123 164.932 17.906 165.454 18.464C165.976 19.022 166.678 19.301 167.56 19.301C168.46 19.301 169.171 19.022 169.693 18.464C170.215 17.906 170.476 17.123 170.476 16.115V7.934H175.093Z" fill="black"/>
<path d="M193.961 15.224C193.961 15.656 193.934 16.106 193.88 16.574H183.431C183.503 17.51 183.8 18.23 184.322 18.734C184.862 19.22 185.519 19.463 186.293 19.463C187.445 19.463 188.246 18.977 188.696 18.005H193.61C193.358 18.995 192.899 19.886 192.233 20.678C191.585 21.47 190.766 22.091 189.776 22.541C188.786 22.991 187.679 23.216 186.455 23.216C184.979 23.216 183.665 22.901 182.513 22.271C181.361 21.641 180.461 20.741 179.813 19.571C179.165 18.401 178.841 17.033 178.841 15.467C178.841 13.901 179.156 12.533 179.786 11.363C180.434 10.193 181.334 9.293 182.486 8.663C183.638 8.03299 184.961 7.71799 186.455 7.71799C187.913 7.71799 189.209 8.024 190.343 8.636C191.477 9.248 192.359 10.121 192.989 11.255C193.637 12.389 193.961 13.712 193.961 15.224ZM189.236 14.009C189.236 13.217 188.966 12.587 188.426 12.119C187.886 11.651 187.211 11.417 186.401 11.417C185.627 11.417 184.97 11.642 184.43 12.092C183.908 12.542 183.584 13.181 183.458 14.009H189.236Z" fill="black"/>
<path d="M206.927 7.772C208.691 7.772 210.095 8.348 211.139 9.5C212.201 10.634 212.732 12.2 212.732 14.198V23H208.142V14.819C208.142 13.811 207.881 13.028 207.359 12.47C206.837 11.912 206.135 11.633 205.253 11.633C204.371 11.633 203.669 11.912 203.147 12.47C202.625 13.028 202.364 13.811 202.364 14.819V23H197.747V7.934H202.364V9.932C202.832 9.266 203.462 8.74399 204.254 8.36599C205.046 7.97 205.937 7.772 206.927 7.772Z" fill="black"/>
<path d="M225.687 19.085V23H223.338C221.664 23 220.359 22.595 219.423 21.785C218.487 20.957 218.019 19.616 218.019 17.762V11.768H216.183V7.934H218.019V4.262H222.636V7.934H225.66V11.768H222.636V17.816C222.636 18.266 222.744 18.59 222.96 18.788C223.176 18.986 223.536 19.085 224.04 19.085H225.687Z" fill="black"/>
<path d="M234.226 10.445C234.766 9.61699 235.441 8.969 236.251 8.501C237.061 8.015 237.961 7.772 238.951 7.772V12.659H237.682C236.53 12.659 235.666 12.911 235.09 13.415C234.514 13.901 234.226 14.765 234.226 16.007V23H229.609V7.934H234.226V10.445Z" fill="black"/>
<path d="M249.366 23.216C247.89 23.216 246.558 22.901 245.37 22.271C244.2 21.641 243.273 20.741 242.589 19.571C241.923 18.401 241.59 17.033 241.59 15.467C241.59 13.919 241.932 12.56 242.616 11.39C243.3 10.202 244.236 9.293 245.424 8.663C246.612 8.03299 247.944 7.71799 249.42 7.71799C250.896 7.71799 252.228 8.03299 253.416 8.663C254.604 9.293 255.54 10.202 256.224 11.39C256.908 12.56 257.25 13.919 257.25 15.467C257.25 17.015 256.899 18.383 256.197 19.571C255.513 20.741 254.568 21.641 253.362 22.271C252.174 22.901 250.842 23.216 249.366 23.216ZM249.366 19.22C250.248 19.22 250.995 18.896 251.607 18.248C252.237 17.6 252.552 16.673 252.552 15.467C252.552 14.261 252.246 13.334 251.634 12.686C251.04 12.038 250.302 11.714 249.42 11.714C248.52 11.714 247.773 12.038 247.179 12.686C246.585 13.316 246.288 14.243 246.288 15.467C246.288 16.673 246.576 17.6 247.152 18.248C247.746 18.896 248.484 19.22 249.366 19.22Z" fill="black"/>
<path d="M267.203 15.44C267.203 13.892 267.491 12.533 268.067 11.363C268.661 10.193 269.462 9.293 270.47 8.663C271.478 8.03299 272.603 7.71799 273.845 7.71799C274.835 7.71799 275.735 7.92499 276.545 8.33899C277.373 8.753 278.021 9.31099 278.489 10.013V3.02H283.106V23H278.489V20.84C278.057 21.56 277.436 22.136 276.626 22.568C275.834 23 274.907 23.216 273.845 23.216C272.603 23.216 271.478 22.901 270.47 22.271C269.462 21.623 268.661 20.714 268.067 19.544C267.491 18.356 267.203 16.988 267.203 15.44ZM278.489 15.467C278.489 14.315 278.165 13.406 277.517 12.74C276.887 12.074 276.113 11.741 275.195 11.741C274.277 11.741 273.494 12.074 272.846 12.74C272.216 13.388 271.901 14.288 271.901 15.44C271.901 16.592 272.216 17.51 272.846 18.194C273.494 18.86 274.277 19.193 275.195 19.193C276.113 19.193 276.887 18.86 277.517 18.194C278.165 17.528 278.489 16.619 278.489 15.467Z" fill="black"/>
<path d="M301.998 15.224C301.998 15.656 301.971 16.106 301.917 16.574H291.468C291.54 17.51 291.837 18.23 292.359 18.734C292.899 19.22 293.556 19.463 294.33 19.463C295.482 19.463 296.283 18.977 296.733 18.005H301.647C301.395 18.995 300.936 19.886 300.27 20.678C299.622 21.47 298.803 22.091 297.813 22.541C296.823 22.991 295.716 23.216 294.492 23.216C293.016 23.216 291.702 22.901 290.55 22.271C289.398 21.641 288.498 20.741 287.85 19.571C287.202 18.401 286.878 17.033 286.878 15.467C286.878 13.901 287.193 12.533 287.823 11.363C288.471 10.193 289.371 9.293 290.523 8.663C291.675 8.03299 292.998 7.71799 294.492 7.71799C295.95 7.71799 297.246 8.024 298.38 8.636C299.514 9.248 300.396 10.121 301.026 11.255C301.674 12.389 301.998 13.712 301.998 15.224ZM297.273 14.009C297.273 13.217 297.003 12.587 296.463 12.119C295.923 11.651 295.248 11.417 294.438 11.417C293.664 11.417 293.007 11.642 292.467 12.092C291.945 12.542 291.621 13.181 291.495 14.009H297.273Z" fill="black"/>
<path d="M320.416 11.768H317.932V23H313.315V11.768H311.641V7.934H313.315V7.502C313.315 5.648 313.846 4.24399 314.908 3.29C315.97 2.31799 317.527 1.832 319.579 1.832C319.921 1.832 320.173 1.841 320.335 1.85899V5.774C319.453 5.72 318.832 5.846 318.472 6.152C318.112 6.45799 317.932 7.007 317.932 7.799V7.934H320.416V11.768Z" fill="black"/>
<path d="M330.793 23.216C329.317 23.216 327.985 22.901 326.797 22.271C325.627 21.641 324.7 20.741 324.016 19.571C323.35 18.401 323.017 17.033 323.017 15.467C323.017 13.919 323.359 12.56 324.043 11.39C324.727 10.202 325.663 9.293 326.851 8.663C328.039 8.03299 329.371 7.71799 330.847 7.71799C332.323 7.71799 333.655 8.03299 334.843 8.663C336.031 9.293 336.967 10.202 337.651 11.39C338.335 12.56 338.677 13.919 338.677 15.467C338.677 17.015 338.326 18.383 337.624 19.571C336.94 20.741 335.995 21.641 334.789 22.271C333.601 22.901 332.269 23.216 330.793 23.216ZM330.793 19.22C331.675 19.22 332.422 18.896 333.034 18.248C333.664 17.6 333.979 16.673 333.979 15.467C333.979 14.261 333.673 13.334 333.061 12.686C332.467 12.038 331.729 11.714 330.847 11.714C329.947 11.714 329.2 12.038 328.606 12.686C328.012 13.316 327.715 14.243 327.715 15.467C327.715 16.673 328.003 17.6 328.579 18.248C329.173 18.896 329.911 19.22 330.793 19.22Z" fill="black"/>
<path d="M347.094 10.445C347.634 9.61699 348.309 8.969 349.119 8.501C349.929 8.015 350.829 7.772 351.819 7.772V12.659H350.55C349.398 12.659 348.534 12.911 347.958 13.415C347.382 13.901 347.094 14.765 347.094 16.007V23H342.477V7.934H347.094V10.445Z" fill="black"/>
<path d="M374.599 7.772C376.471 7.772 377.956 8.339 379.054 9.47299C380.17 10.607 380.728 12.182 380.728 14.198V23H376.138V14.819C376.138 13.847 375.877 13.1 375.355 12.578C374.851 12.038 374.149 11.768 373.249 11.768C372.349 11.768 371.638 12.038 371.116 12.578C370.612 13.1 370.36 13.847 370.36 14.819V23H365.77V14.819C365.77 13.847 365.509 13.1 364.987 12.578C364.483 12.038 363.781 11.768 362.881 11.768C361.981 11.768 361.27 12.038 360.748 12.578C360.244 13.1 359.992 13.847 359.992 14.819V23H355.375V7.934H359.992V9.824C360.46 9.194 361.072 8.699 361.828 8.33899C362.584 7.961 363.439 7.772 364.393 7.772C365.527 7.772 366.535 8.015 367.417 8.501C368.317 8.987 369.019 9.68 369.523 10.58C370.045 9.752 370.756 9.077 371.656 8.555C372.556 8.033 373.537 7.772 374.599 7.772Z" fill="black"/>
<path d="M384.389 15.44C384.389 13.892 384.677 12.533 385.253 11.363C385.847 10.193 386.648 9.293 387.656 8.663C388.664 8.03299 389.789 7.71799 391.031 7.71799C392.093 7.71799 393.02 7.93399 393.812 8.36599C394.622 8.798 395.243 9.365 395.675 10.067V7.934H400.292V23H395.675V20.867C395.225 21.569 394.595 22.136 393.785 22.568C392.993 23 392.066 23.216 391.004 23.216C389.78 23.216 388.664 22.901 387.656 22.271C386.648 21.623 385.847 20.714 385.253 19.544C384.677 18.356 384.389 16.988 384.389 15.44ZM395.675 15.467C395.675 14.315 395.351 13.406 394.703 12.74C394.073 12.074 393.299 11.741 392.381 11.741C391.463 11.741 390.68 12.074 390.032 12.74C389.402 13.388 389.087 14.288 389.087 15.44C389.087 16.592 389.402 17.51 390.032 18.194C390.68 18.86 391.463 19.193 392.381 19.193C393.299 19.193 394.073 18.86 394.703 18.194C395.351 17.528 395.675 16.619 395.675 15.467Z" fill="black"/>
<path d="M404.065 15.467C404.065 13.901 404.38 12.533 405.01 11.363C405.658 10.193 406.549 9.293 407.683 8.663C408.835 8.03299 410.149 7.71799 411.625 7.71799C413.515 7.71799 415.09 8.213 416.35 9.203C417.628 10.193 418.465 11.588 418.861 13.388H413.947C413.533 12.236 412.732 11.66 411.544 11.66C410.698 11.66 410.023 11.993 409.519 12.659C409.015 13.307 408.763 14.243 408.763 15.467C408.763 16.691 409.015 17.636 409.519 18.302C410.023 18.95 410.698 19.274 411.544 19.274C412.732 19.274 413.533 18.698 413.947 17.546H418.861C418.465 19.31 417.628 20.696 416.35 21.704C415.072 22.712 413.497 23.216 411.625 23.216C410.149 23.216 408.835 22.901 407.683 22.271C406.549 21.641 405.658 20.741 405.01 19.571C404.38 18.401 404.065 17.033 404.065 15.467Z" fill="black"/>
<path d="M425.002 6.36799C424.192 6.36799 423.526 6.13399 423.004 5.666C422.5 5.18 422.248 4.586 422.248 3.884C422.248 3.164 422.5 2.57 423.004 2.10199C423.526 1.61599 424.192 1.37299 425.002 1.37299C425.794 1.37299 426.442 1.61599 426.946 2.10199C427.468 2.57 427.729 3.164 427.729 3.884C427.729 4.586 427.468 5.18 426.946 5.666C426.442 6.13399 425.794 6.36799 425.002 6.36799ZM427.297 7.934V23H422.68V7.934H427.297Z" fill="black"/>
<path d="M438.851 23.216C437.375 23.216 436.043 22.901 434.855 22.271C433.685 21.641 432.758 20.741 432.074 19.571C431.408 18.401 431.075 17.033 431.075 15.467C431.075 13.919 431.417 12.56 432.101 11.39C432.785 10.202 433.721 9.293 434.909 8.663C436.097 8.03299 437.429 7.71799 438.905 7.71799C440.381 7.71799 441.713 8.03299 442.901 8.663C444.089 9.293 445.025 10.202 445.709 11.39C446.393 12.56 446.735 13.919 446.735 15.467C446.735 17.015 446.384 18.383 445.682 19.571C444.998 20.741 444.053 21.641 442.847 22.271C441.659 22.901 440.327 23.216 438.851 23.216ZM438.851 19.22C439.733 19.22 440.48 18.896 441.092 18.248C441.722 17.6 442.037 16.673 442.037 15.467C442.037 14.261 441.731 13.334 441.119 12.686C440.525 12.038 439.787 11.714 438.905 11.714C438.005 11.714 437.258 12.038 436.664 12.686C436.07 13.316 435.773 14.243 435.773 15.467C435.773 16.673 436.061 17.6 436.637 18.248C437.231 18.896 437.969 19.22 438.851 19.22ZM442.415 4.073L435.908 6.8V3.61399L442.415 0.481995V4.073Z" fill="black"/>
<path d="M459.715 7.772C461.479 7.772 462.883 8.348 463.927 9.5C464.989 10.634 465.52 12.2 465.52 14.198V23H460.93V14.819C460.93 13.811 460.669 13.028 460.147 12.47C459.625 11.912 458.923 11.633 458.041 11.633C457.159 11.633 456.457 11.912 455.935 12.47C455.413 13.028 455.152 13.811 455.152 14.819V23H450.535V7.934H455.152V9.932C455.62 9.266 456.25 8.74399 457.042 8.36599C457.834 7.97 458.725 7.772 459.715 7.772Z" fill="black"/>
<path d="M491.352 15.224C491.352 15.656 491.325 16.106 491.271 16.574H480.822C480.894 17.51 481.191 18.23 481.713 18.734C482.253 19.22 482.91 19.463 483.684 19.463C484.836 19.463 485.637 18.977 486.087 18.005H491.001C490.749 18.995 490.29 19.886 489.624 20.678C488.976 21.47 488.157 22.091 487.167 22.541C486.177 22.991 485.07 23.216 483.846 23.216C482.37 23.216 481.056 22.901 479.904 22.271C478.752 21.641 477.852 20.741 477.204 19.571C476.556 18.401 476.232 17.033 476.232 15.467C476.232 13.901 476.547 12.533 477.177 11.363C477.825 10.193 478.725 9.293 479.877 8.663C481.029 8.03299 482.352 7.71799 483.846 7.71799C485.304 7.71799 486.6 8.024 487.734 8.636C488.868 9.248 489.75 10.121 490.38 11.255C491.028 12.389 491.352 13.712 491.352 15.224ZM486.627 14.009C486.627 13.217 486.357 12.587 485.817 12.119C485.277 11.651 484.602 11.417 483.792 11.417C483.018 11.417 482.361 11.642 481.821 12.092C481.299 12.542 480.975 13.181 480.849 14.009H486.627Z" fill="black"/>
<path d="M504.317 7.772C506.081 7.772 507.485 8.348 508.529 9.5C509.591 10.634 510.122 12.2 510.122 14.198V23H505.532V14.819C505.532 13.811 505.271 13.028 504.749 12.47C504.227 11.912 503.525 11.633 502.643 11.633C501.761 11.633 501.059 11.912 500.537 12.47C500.015 13.028 499.754 13.811 499.754 14.819V23H495.137V7.934H499.754V9.932C500.222 9.266 500.852 8.74399 501.644 8.36599C502.436 7.97 503.327 7.772 504.317 7.772Z" fill="black"/>
<path d="M32.2657 98.067C32.7157 97.365 33.3367 96.798 34.1287 96.366C34.9207 95.934 35.8477 95.718 36.9097 95.718C38.1517 95.718 39.2767 96.033 40.2847 96.663C41.2927 97.293 42.0847 98.193 42.6607 99.363C43.2547 100.533 43.5517 101.892 43.5517 103.44C43.5517 104.988 43.2547 106.356 42.6607 107.544C42.0847 108.714 41.2927 109.623 40.2847 110.271C39.2767 110.901 38.1517 111.216 36.9097 111.216C35.8657 111.216 34.9387 111 34.1287 110.568C33.3367 110.136 32.7157 109.578 32.2657 108.894V118.182H27.6487V95.934H32.2657V98.067ZM38.8537 103.44C38.8537 102.288 38.5297 101.388 37.8817 100.74C37.2517 100.074 36.4687 99.741 35.5327 99.741C34.6147 99.741 33.8317 100.074 33.1837 100.74C32.5537 101.406 32.2387 102.315 32.2387 103.467C32.2387 104.619 32.5537 105.528 33.1837 106.194C33.8317 106.86 34.6147 107.193 35.5327 107.193C36.4507 107.193 37.2337 106.86 37.8817 106.194C38.5297 105.51 38.8537 104.592 38.8537 103.44Z" fill="black"/>
<path d="M46.4059 103.44C46.4059 101.892 46.6939 100.533 47.2699 99.363C47.8639 98.193 48.6649 97.293 49.6729 96.663C50.6809 96.033 51.8059 95.718 53.0479 95.718C54.1099 95.718 55.0369 95.934 55.8289 96.366C56.6389 96.798 57.2599 97.365 57.6919 98.067V95.934H62.3089V111H57.6919V108.867C57.2419 109.569 56.6119 110.136 55.8019 110.568C55.0099 111 54.0829 111.216 53.0209 111.216C51.7969 111.216 50.6809 110.901 49.6729 110.271C48.6649 109.623 47.8639 108.714 47.2699 107.544C46.6939 106.356 46.4059 104.988 46.4059 103.44ZM57.6919 103.467C57.6919 102.315 57.3679 101.406 56.7199 100.74C56.0899 100.074 55.3159 99.741 54.3979 99.741C53.4799 99.741 52.6969 100.074 52.0489 100.74C51.4189 101.388 51.1039 102.288 51.1039 103.44C51.1039 104.592 51.4189 105.51 52.0489 106.194C52.6969 106.86 53.4799 107.193 54.3979 107.193C55.3159 107.193 56.0899 106.86 56.7199 106.194C57.3679 105.528 57.6919 104.619 57.6919 103.467Z" fill="black"/>
<path d="M71.6161 98.445C72.1561 97.617 72.8311 96.969 73.6411 96.501C74.4511 96.015 75.3511 95.772 76.3411 95.772V100.659H75.0721C73.9201 100.659 73.0561 100.911 72.4801 101.415C71.9041 101.901 71.6161 102.765 71.6161 104.007V111H66.9991V95.934H71.6161V98.445Z" fill="black"/>
<path d="M78.9799 103.44C78.9799 101.892 79.2679 100.533 79.8439 99.363C80.4379 98.193 81.2389 97.293 82.2469 96.663C83.2549 96.033 84.3799 95.718 85.6219 95.718C86.6839 95.718 87.6109 95.934 88.4029 96.366C89.2129 96.798 89.8339 97.365 90.2659 98.067V95.934H94.8829V111H90.2659V108.867C89.8159 109.569 89.1859 110.136 88.3759 110.568C87.5839 111 86.6569 111.216 85.5949 111.216C84.3709 111.216 83.2549 110.901 82.2469 110.271C81.2389 109.623 80.4379 108.714 79.8439 107.544C79.2679 106.356 78.9799 104.988 78.9799 103.44ZM90.2659 103.467C90.2659 102.315 89.9419 101.406 89.2939 100.74C88.6639 100.074 87.8899 99.741 86.9719 99.741C86.0539 99.741 85.2709 100.074 84.6229 100.74C83.9929 101.388 83.6779 102.288 83.6779 103.44C83.6779 104.592 83.9929 105.51 84.6229 106.194C85.2709 106.86 86.0539 107.193 86.9719 107.193C87.8899 107.193 88.6639 106.86 89.2939 106.194C89.9419 105.528 90.2659 104.619 90.2659 103.467Z" fill="black"/>
<path d="M115.825 95.772C117.589 95.772 118.993 96.348 120.037 97.5C121.099 98.634 121.63 100.2 121.63 102.198V111H117.04V102.819C117.04 101.811 116.779 101.028 116.257 100.47C115.735 99.912 115.033 99.633 114.151 99.633C113.269 99.633 112.567 99.912 112.045 100.47C111.523 101.028 111.262 101.811 111.262 102.819V111H106.645V95.934H111.262V97.932C111.73 97.266 112.36 96.744 113.152 96.366C113.944 95.97 114.835 95.772 115.825 95.772Z" fill="black"/>
<path d="M141.065 95.934V111H136.448V108.948C135.98 109.614 135.341 110.154 134.531 110.568C133.739 110.964 132.857 111.162 131.885 111.162C130.733 111.162 129.716 110.91 128.834 110.406C127.952 109.884 127.268 109.137 126.782 108.165C126.296 107.193 126.053 106.05 126.053 104.736V95.934H130.643V104.115C130.643 105.123 130.904 105.906 131.426 106.464C131.948 107.022 132.65 107.301 133.532 107.301C134.432 107.301 135.143 107.022 135.665 106.464C136.187 105.906 136.448 105.123 136.448 104.115V95.934H141.065Z" fill="black"/>
<path d="M159.934 103.224C159.934 103.656 159.906 104.106 159.852 104.574H149.403C149.475 105.51 149.772 106.23 150.294 106.734C150.834 107.22 151.492 107.463 152.266 107.463C153.418 107.463 154.219 106.977 154.669 106.005H159.582C159.33 106.995 158.871 107.886 158.205 108.678C157.557 109.47 156.738 110.091 155.748 110.541C154.758 110.991 153.651 111.216 152.427 111.216C150.951 111.216 149.637 110.901 148.485 110.271C147.333 109.641 146.433 108.741 145.785 107.571C145.137 106.401 144.813 105.033 144.813 103.467C144.813 101.901 145.128 100.533 145.758 99.363C146.406 98.193 147.306 97.293 148.458 96.663C149.61 96.033 150.933 95.718 152.427 95.718C153.885 95.718 155.181 96.024 156.315 96.636C157.449 97.248 158.332 98.121 158.962 99.255C159.61 100.389 159.934 101.712 159.934 103.224ZM155.208 102.009C155.208 101.217 154.938 100.587 154.398 100.119C153.858 99.651 153.183 99.417 152.373 99.417C151.599 99.417 150.942 99.642 150.402 100.092C149.88 100.542 149.556 101.181 149.43 102.009H155.208Z" fill="black"/>
<path d="M170.496 106.68L173.763 95.934H178.677L173.331 111H167.634L162.288 95.934H167.229L170.496 106.68Z" fill="black"/>
<path d="M181.053 103.44C181.053 101.892 181.341 100.533 181.917 99.363C182.511 98.193 183.312 97.293 184.32 96.663C185.328 96.033 186.453 95.718 187.695 95.718C188.757 95.718 189.684 95.934 190.476 96.366C191.286 96.798 191.907 97.365 192.339 98.067V95.934H196.956V111H192.339V108.867C191.889 109.569 191.259 110.136 190.449 110.568C189.657 111 188.73 111.216 187.668 111.216C186.444 111.216 185.328 110.901 184.32 110.271C183.312 109.623 182.511 108.714 181.917 107.544C181.341 106.356 181.053 104.988 181.053 103.44ZM192.339 103.467C192.339 102.315 192.015 101.406 191.367 100.74C190.737 100.074 189.963 99.741 189.045 99.741C188.127 99.741 187.344 100.074 186.696 100.74C186.066 101.388 185.751 102.288 185.751 103.44C185.751 104.592 186.066 105.51 186.696 106.194C187.344 106.86 188.127 107.193 189.045 107.193C189.963 107.193 190.737 106.86 191.367 106.194C192.015 105.528 192.339 104.619 192.339 103.467Z" fill="black"/>
<path d="M207.775 111.216C206.461 111.216 205.291 110.991 204.265 110.541C203.239 110.091 202.429 109.479 201.835 108.705C201.241 107.913 200.908 107.031 200.836 106.059H205.399C205.453 106.581 205.696 107.004 206.128 107.328C206.56 107.652 207.091 107.814 207.721 107.814C208.297 107.814 208.738 107.706 209.044 107.49C209.368 107.256 209.53 106.959 209.53 106.599C209.53 106.167 209.305 105.852 208.855 105.654C208.405 105.438 207.676 105.204 206.668 104.952C205.588 104.7 204.688 104.439 203.968 104.169C203.248 103.881 202.627 103.44 202.105 102.846C201.583 102.234 201.322 101.415 201.322 100.389C201.322 99.525 201.556 98.742 202.024 98.04C202.51 97.32 203.212 96.753 204.13 96.339C205.066 95.925 206.173 95.718 207.451 95.718C209.341 95.718 210.826 96.186 211.906 97.122C213.004 98.058 213.634 99.3 213.796 100.848H209.53C209.458 100.326 209.224 99.912 208.828 99.606C208.45 99.3 207.946 99.147 207.316 99.147C206.776 99.147 206.362 99.255 206.074 99.471C205.786 99.669 205.642 99.948 205.642 100.308C205.642 100.74 205.867 101.064 206.317 101.28C206.785 101.496 207.505 101.712 208.477 101.928C209.593 102.216 210.502 102.504 211.204 102.792C211.906 103.062 212.518 103.512 213.04 104.142C213.58 104.754 213.859 105.582 213.877 106.626C213.877 107.508 213.625 108.3 213.121 109.002C212.635 109.686 211.924 110.226 210.988 110.622C210.07 111.018 208.999 111.216 207.775 111.216Z" fill="black"/>
<path d="M231.9 106.68L235.167 95.934H240.081L234.735 111H229.038L223.692 95.934H228.633L231.9 106.68Z" fill="black"/>
<path d="M250.232 111.216C248.756 111.216 247.424 110.901 246.236 110.271C245.066 109.641 244.139 108.741 243.455 107.571C242.789 106.401 242.456 105.033 242.456 103.467C242.456 101.919 242.798 100.56 243.482 99.39C244.166 98.202 245.102 97.293 246.29 96.663C247.478 96.033 248.81 95.718 250.286 95.718C251.762 95.718 253.094 96.033 254.282 96.663C255.47 97.293 256.406 98.202 257.09 99.39C257.774 100.56 258.116 101.919 258.116 103.467C258.116 105.015 257.765 106.383 257.063 107.571C256.379 108.741 255.434 109.641 254.228 110.271C253.04 110.901 251.708 111.216 250.232 111.216ZM250.232 107.22C251.114 107.22 251.861 106.896 252.473 106.248C253.103 105.6 253.418 104.673 253.418 103.467C253.418 102.261 253.112 101.334 252.5 100.686C251.906 100.038 251.168 99.714 250.286 99.714C249.386 99.714 248.639 100.038 248.045 100.686C247.451 101.316 247.154 102.243 247.154 103.467C247.154 104.673 247.442 105.6 248.018 106.248C248.612 106.896 249.35 107.22 250.232 107.22Z" fill="black"/>
<path d="M260.998 103.467C260.998 101.901 261.313 100.533 261.943 99.363C262.591 98.193 263.482 97.293 264.616 96.663C265.768 96.033 267.082 95.718 268.558 95.718C270.448 95.718 272.023 96.213 273.283 97.203C274.561 98.193 275.398 99.588 275.794 101.388H270.88C270.466 100.236 269.665 99.66 268.477 99.66C267.631 99.66 266.956 99.993 266.452 100.659C265.948 101.307 265.696 102.243 265.696 103.467C265.696 104.691 265.948 105.636 266.452 106.302C266.956 106.95 267.631 107.274 268.477 107.274C269.665 107.274 270.466 106.698 270.88 105.546H275.794C275.398 107.31 274.561 108.696 273.283 109.704C272.005 110.712 270.43 111.216 268.558 111.216C267.082 111.216 265.768 110.901 264.616 110.271C263.482 109.641 262.591 108.741 261.943 107.571C261.313 106.401 260.998 105.033 260.998 103.467Z" fill="black"/>
<path d="M293.816 103.224C293.816 103.656 293.789 104.106 293.735 104.574H283.286C283.358 105.51 283.655 106.23 284.177 106.734C284.717 107.22 285.374 107.463 286.148 107.463C287.3 107.463 288.101 106.977 288.551 106.005H293.465C293.213 106.995 292.754 107.886 292.088 108.678C291.44 109.47 290.621 110.091 289.631 110.541C288.641 110.991 287.534 111.216 286.31 111.216C284.834 111.216 283.52 110.901 282.368 110.271C281.216 109.641 280.316 108.741 279.668 107.571C279.02 106.401 278.696 105.033 278.696 103.467C278.696 101.901 279.011 100.533 279.641 99.363C280.289 98.193 281.189 97.293 282.341 96.663C283.493 96.033 284.816 95.718 286.31 95.718C287.768 95.718 289.064 96.024 290.198 96.636C291.332 97.248 292.214 98.121 292.844 99.255C293.492 100.389 293.816 101.712 293.816 103.224ZM289.091 102.009C289.091 101.217 288.821 100.587 288.281 100.119C287.741 99.651 287.066 99.417 286.256 99.417C285.482 99.417 284.825 99.642 284.285 100.092C283.763 100.542 283.439 101.181 283.313 102.009H289.091Z" fill="black"/>
<path d="M303.73 111.216C302.416 111.216 301.246 110.991 300.22 110.541C299.194 110.091 298.384 109.479 297.79 108.705C297.196 107.913 296.863 107.031 296.791 106.059H301.354C301.408 106.581 301.651 107.004 302.083 107.328C302.515 107.652 303.046 107.814 303.676 107.814C304.252 107.814 304.693 107.706 304.999 107.49C305.323 107.256 305.485 106.959 305.485 106.599C305.485 106.167 305.26 105.852 304.81 105.654C304.36 105.438 303.631 105.204 302.623 104.952C301.543 104.7 300.643 104.439 299.923 104.169C299.203 103.881 298.582 103.44 298.06 102.846C297.538 102.234 297.277 101.415 297.277 100.389C297.277 99.525 297.511 98.742 297.979 98.04C298.465 97.32 299.167 96.753 300.085 96.339C301.021 95.925 302.128 95.718 303.406 95.718C305.296 95.718 306.781 96.186 307.861 97.122C308.959 98.058 309.589 99.3 309.751 100.848H305.485C305.413 100.326 305.179 99.912 304.783 99.606C304.405 99.3 303.901 99.147 303.271 99.147C302.731 99.147 302.317 99.255 302.029 99.471C301.741 99.669 301.597 99.948 301.597 100.308C301.597 100.74 301.822 101.064 302.272 101.28C302.74 101.496 303.46 101.712 304.432 101.928C305.548 102.216 306.457 102.504 307.159 102.792C307.861 103.062 308.473 103.512 308.995 104.142C309.535 104.754 309.814 105.582 309.832 106.626C309.832 107.508 309.58 108.3 309.076 109.002C308.59 109.686 307.879 110.226 306.943 110.622C306.025 111.018 304.954 111.216 303.73 111.216Z" fill="black"/>
<path d="M320.161 103.44C320.161 101.892 320.449 100.533 321.025 99.363C321.619 98.193 322.42 97.293 323.428 96.663C324.436 96.033 325.561 95.718 326.803 95.718C327.793 95.718 328.693 95.925 329.503 96.339C330.331 96.753 330.979 97.311 331.447 98.013V91.02H336.064V111H331.447V108.84C331.015 109.56 330.394 110.136 329.584 110.568C328.792 111 327.865 111.216 326.803 111.216C325.561 111.216 324.436 110.901 323.428 110.271C322.42 109.623 321.619 108.714 321.025 107.544C320.449 106.356 320.161 104.988 320.161 103.44ZM331.447 103.467C331.447 102.315 331.123 101.406 330.475 100.74C329.845 100.074 329.071 99.741 328.153 99.741C327.235 99.741 326.452 100.074 325.804 100.74C325.174 101.388 324.859 102.288 324.859 103.44C324.859 104.592 325.174 105.51 325.804 106.194C326.452 106.86 327.235 107.193 328.153 107.193C329.071 107.193 329.845 106.86 330.475 106.194C331.123 105.528 331.447 104.619 331.447 103.467Z" fill="black"/>
<path d="M354.956 103.224C354.956 103.656 354.929 104.106 354.875 104.574H344.426C344.498 105.51 344.795 106.23 345.317 106.734C345.857 107.22 346.514 107.463 347.288 107.463C348.44 107.463 349.241 106.977 349.691 106.005H354.605C354.353 106.995 353.894 107.886 353.228 108.678C352.58 109.47 351.761 110.091 350.771 110.541C349.781 110.991 348.674 111.216 347.45 111.216C345.974 111.216 344.66 110.901 343.508 110.271C342.356 109.641 341.456 108.741 340.808 107.571C340.16 106.401 339.836 105.033 339.836 103.467C339.836 101.901 340.151 100.533 340.781 99.363C341.429 98.193 342.329 97.293 343.481 96.663C344.633 96.033 345.956 95.718 347.45 95.718C348.908 95.718 350.204 96.024 351.338 96.636C352.472 97.248 353.354 98.121 353.984 99.255C354.632 100.389 354.956 101.712 354.956 103.224ZM350.231 102.009C350.231 101.217 349.961 100.587 349.421 100.119C348.881 99.651 348.206 99.417 347.396 99.417C346.622 99.417 345.965 99.642 345.425 100.092C344.903 100.542 344.579 101.181 344.453 102.009H350.231Z" fill="black"/>
<path d="M363.358 91.02V111H358.741V91.02H363.358Z" fill="black"/>
<path d="M374.208 103.467C374.208 101.901 374.523 100.533 375.153 99.363C375.801 98.193 376.692 97.293 377.826 96.663C378.978 96.033 380.292 95.718 381.768 95.718C383.658 95.718 385.233 96.213 386.493 97.203C387.771 98.193 388.608 99.588 389.004 101.388H384.09C383.676 100.236 382.875 99.66 381.687 99.66C380.841 99.66 380.166 99.993 379.662 100.659C379.158 101.307 378.906 102.243 378.906 103.467C378.906 104.691 379.158 105.636 379.662 106.302C380.166 106.95 380.841 107.274 381.687 107.274C382.875 107.274 383.676 106.698 384.09 105.546H389.004C388.608 107.31 387.771 108.696 386.493 109.704C385.215 110.712 383.64 111.216 381.768 111.216C380.292 111.216 378.978 110.901 377.826 110.271C376.692 109.641 375.801 108.741 375.153 107.571C374.523 106.401 374.208 105.033 374.208 103.467Z" fill="black"/>
<path d="M391.906 103.44C391.906 101.892 392.194 100.533 392.77 99.363C393.364 98.193 394.165 97.293 395.173 96.663C396.181 96.033 397.306 95.718 398.548 95.718C399.61 95.718 400.537 95.934 401.329 96.366C402.139 96.798 402.76 97.365 403.192 98.067V95.934H407.809V111H403.192V108.867C402.742 109.569 402.112 110.136 401.302 110.568C400.51 111 399.583 111.216 398.521 111.216C397.297 111.216 396.181 110.901 395.173 110.271C394.165 109.623 393.364 108.714 392.77 107.544C392.194 106.356 391.906 104.988 391.906 103.44ZM403.192 103.467C403.192 102.315 402.868 101.406 402.22 100.74C401.59 100.074 400.816 99.741 399.898 99.741C398.98 99.741 398.197 100.074 397.549 100.74C396.919 101.388 396.604 102.288 396.604 103.44C396.604 104.592 396.919 105.51 397.549 106.194C398.197 106.86 398.98 107.193 399.898 107.193C400.816 107.193 401.59 106.86 402.22 106.194C402.868 105.528 403.192 104.619 403.192 103.467Z" fill="black"/>
<path d="M431.723 95.772C433.595 95.772 435.08 96.339 436.178 97.473C437.294 98.607 437.852 100.182 437.852 102.198V111H433.262V102.819C433.262 101.847 433.001 101.1 432.479 100.578C431.975 100.038 431.273 99.768 430.373 99.768C429.473 99.768 428.762 100.038 428.24 100.578C427.736 101.1 427.484 101.847 427.484 102.819V111H422.894V102.819C422.894 101.847 422.633 101.1 422.111 100.578C421.607 100.038 420.905 99.768 420.005 99.768C419.105 99.768 418.394 100.038 417.872 100.578C417.368 101.1 417.116 101.847 417.116 102.819V111H412.499V95.934H417.116V97.824C417.584 97.194 418.196 96.699 418.952 96.339C419.708 95.961 420.563 95.772 421.517 95.772C422.651 95.772 423.659 96.015 424.541 96.501C425.441 96.987 426.143 97.68 426.647 98.58C427.169 97.752 427.88 97.077 428.78 96.555C429.68 96.033 430.661 95.772 431.723 95.772Z" fill="black"/>
<path d="M447.048 98.067C447.48 97.365 448.101 96.798 448.911 96.366C449.721 95.934 450.648 95.718 451.692 95.718C452.934 95.718 454.059 96.033 455.067 96.663C456.075 97.293 456.867 98.193 457.443 99.363C458.037 100.533 458.334 101.892 458.334 103.44C458.334 104.988 458.037 106.356 457.443 107.544C456.867 108.714 456.075 109.623 455.067 110.271C454.059 110.901 452.934 111.216 451.692 111.216C450.63 111.216 449.703 111.009 448.911 110.595C448.119 110.163 447.498 109.596 447.048 108.894V111H442.431V91.02H447.048V98.067ZM453.636 103.44C453.636 102.288 453.312 101.388 452.664 100.74C452.034 100.074 451.251 99.741 450.315 99.741C449.397 99.741 448.614 100.074 447.966 100.74C447.336 101.406 447.021 102.315 447.021 103.467C447.021 104.619 447.336 105.528 447.966 106.194C448.614 106.86 449.397 107.193 450.315 107.193C451.233 107.193 452.016 106.86 452.664 106.194C453.312 105.51 453.636 104.592 453.636 103.44Z" fill="black"/>
<path d="M464.428 94.368C463.618 94.368 462.952 94.134 462.43 93.666C461.926 93.18 461.674 92.586 461.674 91.884C461.674 91.164 461.926 90.57 462.43 90.102C462.952 89.616 463.618 89.373 464.428 89.373C465.22 89.373 465.868 89.616 466.372 90.102C466.894 90.57 467.155 91.164 467.155 91.884C467.155 92.586 466.894 93.18 466.372 93.666C465.868 94.134 465.22 94.368 464.428 94.368ZM466.723 95.934V111H462.106V95.934H466.723Z" fill="black"/>
<path d="M478.277 111.216C476.801 111.216 475.469 110.901 474.281 110.271C473.111 109.641 472.184 108.741 471.5 107.571C470.834 106.401 470.501 105.033 470.501 103.467C470.501 101.919 470.843 100.56 471.527 99.39C472.211 98.202 473.147 97.293 474.335 96.663C475.523 96.033 476.855 95.718 478.331 95.718C479.807 95.718 481.139 96.033 482.327 96.663C483.515 97.293 484.451 98.202 485.135 99.39C485.819 100.56 486.161 101.919 486.161 103.467C486.161 105.015 485.81 106.383 485.108 107.571C484.424 108.741 483.479 109.641 482.273 110.271C481.085 110.901 479.753 111.216 478.277 111.216ZM478.277 107.22C479.159 107.22 479.906 106.896 480.518 106.248C481.148 105.6 481.463 104.673 481.463 103.467C481.463 102.261 481.157 101.334 480.545 100.686C479.951 100.038 479.213 99.714 478.331 99.714C477.431 99.714 476.684 100.038 476.09 100.686C475.496 101.316 475.199 102.243 475.199 103.467C475.199 104.673 475.487 105.6 476.063 106.248C476.657 106.896 477.395 107.22 478.277 107.22Z" fill="black"/>
<path d="M503.161 111.216C501.847 111.216 500.677 110.991 499.651 110.541C498.625 110.091 497.815 109.479 497.221 108.705C496.627 107.913 496.294 107.031 496.222 106.059H500.785C500.839 106.581 501.082 107.004 501.514 107.328C501.946 107.652 502.477 107.814 503.107 107.814C503.683 107.814 504.124 107.706 504.43 107.49C504.754 107.256 504.916 106.959 504.916 106.599C504.916 106.167 504.691 105.852 504.241 105.654C503.791 105.438 503.062 105.204 502.054 104.952C500.974 104.7 500.074 104.439 499.354 104.169C498.634 103.881 498.013 103.44 497.491 102.846C496.969 102.234 496.708 101.415 496.708 100.389C496.708 99.525 496.942 98.742 497.41 98.04C497.896 97.32 498.598 96.753 499.516 96.339C500.452 95.925 501.559 95.718 502.837 95.718C504.727 95.718 506.212 96.186 507.292 97.122C508.39 98.058 509.02 99.3 509.182 100.848H504.916C504.844 100.326 504.61 99.912 504.214 99.606C503.836 99.3 503.332 99.147 502.702 99.147C502.162 99.147 501.748 99.255 501.46 99.471C501.172 99.669 501.028 99.948 501.028 100.308C501.028 100.74 501.253 101.064 501.703 101.28C502.171 101.496 502.891 101.712 503.863 101.928C504.979 102.216 505.888 102.504 506.59 102.792C507.292 103.062 507.904 103.512 508.426 104.142C508.966 104.754 509.245 105.582 509.263 106.626C509.263 107.508 509.011 108.3 508.507 109.002C508.021 109.686 507.31 110.226 506.374 110.622C505.456 111.018 504.385 111.216 503.161 111.216Z" fill="black"/>
<path d="M520.296 111.216C518.82 111.216 517.488 110.901 516.3 110.271C515.13 109.641 514.203 108.741 513.519 107.571C512.853 106.401 512.52 105.033 512.52 103.467C512.52 101.919 512.862 100.56 513.546 99.39C514.23 98.202 515.166 97.293 516.354 96.663C517.542 96.033 518.874 95.718 520.35 95.718C521.826 95.718 523.158 96.033 524.346 96.663C525.534 97.293 526.47 98.202 527.154 99.39C527.838 100.56 528.18 101.919 528.18 103.467C528.18 105.015 527.829 106.383 527.127 107.571C526.443 108.741 525.498 109.641 524.292 110.271C523.104 110.901 521.772 111.216 520.296 111.216ZM520.296 107.22C521.178 107.22 521.925 106.896 522.537 106.248C523.167 105.6 523.482 104.673 523.482 103.467C523.482 102.261 523.176 101.334 522.564 100.686C521.97 100.038 521.232 99.714 520.35 99.714C519.45 99.714 518.703 100.038 518.109 100.686C517.515 101.316 517.218 102.243 517.218 103.467C517.218 104.673 517.506 105.6 518.082 106.248C518.676 106.896 519.414 107.22 520.296 107.22Z" fill="black"/>
<path d="M531.061 103.467C531.061 101.901 531.376 100.533 532.006 99.363C532.654 98.193 533.545 97.293 534.679 96.663C535.831 96.033 537.145 95.718 538.621 95.718C540.511 95.718 542.086 96.213 543.346 97.203C544.624 98.193 545.461 99.588 545.857 101.388H540.943C540.529 100.236 539.728 99.66 538.54 99.66C537.694 99.66 537.019 99.993 536.515 100.659C536.011 101.307 535.759 102.243 535.759 103.467C535.759 104.691 536.011 105.636 536.515 106.302C537.019 106.95 537.694 107.274 538.54 107.274C539.728 107.274 540.529 106.698 540.943 105.546H545.857C545.461 107.31 544.624 108.696 543.346 109.704C542.068 110.712 540.493 111.216 538.621 111.216C537.145 111.216 535.831 110.901 534.679 110.271C533.545 109.641 532.654 108.741 532.006 107.571C531.376 106.401 531.061 105.033 531.061 103.467Z" fill="black"/>
<path d="M551.999 94.368C551.189 94.368 550.523 94.134 550.001 93.666C549.497 93.18 549.245 92.586 549.245 91.884C549.245 91.164 549.497 90.57 550.001 90.102C550.523 89.616 551.189 89.373 551.999 89.373C552.791 89.373 553.439 89.616 553.943 90.102C554.465 90.57 554.726 91.164 554.726 91.884C554.726 92.586 554.465 93.18 553.943 93.666C553.439 94.134 552.791 94.368 551.999 94.368ZM554.294 95.934V111H549.677V95.934H554.294Z" fill="black"/>
<path d="M558.072 103.44C558.072 101.892 558.36 100.533 558.936 99.363C559.53 98.193 560.331 97.293 561.339 96.663C562.347 96.033 563.472 95.718 564.714 95.718C565.776 95.718 566.703 95.934 567.495 96.366C568.305 96.798 568.926 97.365 569.358 98.067V95.934H573.975V111H569.358V108.867C568.908 109.569 568.278 110.136 567.468 110.568C566.676 111 565.749 111.216 564.687 111.216C563.463 111.216 562.347 110.901 561.339 110.271C560.331 109.623 559.53 108.714 558.936 107.544C558.36 106.356 558.072 104.988 558.072 103.44ZM569.358 103.467C569.358 102.315 569.034 101.406 568.386 100.74C567.756 100.074 566.982 99.741 566.064 99.741C565.146 99.741 564.363 100.074 563.715 100.74C563.085 101.388 562.77 102.288 562.77 103.44C562.77 104.592 563.085 105.51 563.715 106.194C564.363 106.86 565.146 107.193 566.064 107.193C566.982 107.193 567.756 106.86 568.386 106.194C569.034 105.528 569.358 104.619 569.358 103.467Z" fill="black"/>
<path d="M583.282 91.02V111H578.665V91.02H583.282Z" fill="black"/>
</svg>
