<svg width="1042" height="114" viewBox="0 0 1042 114" fill="none" xmlns="http://www.w3.org/2000/svg">
<path d="M115.927 54.1863L118.044 52.0692L120.161 54.1863L118.044 56.3034L115.927 54.1863ZM107.328 41.3536L118.044 52.0692L113.809 56.3034L103.094 45.5878L107.328 41.3536ZM118.044 56.3034L107.328 67.019L103.094 62.7848L113.809 52.0692L118.044 56.3034Z" fill="#33C0FF"/>
<path d="M94.7888 54.1863L96.9059 52.0692L99.0231 54.1863L96.9059 56.3034L94.7888 54.1863ZM86.1903 41.3536L96.9059 52.0692L92.6717 56.3034L81.9561 45.5878L86.1903 41.3536ZM96.9059 56.3034L86.1903 67.019L81.9561 62.7848L92.6717 52.0692L96.9059 56.3034Z" fill="#33C0FF"/>
<path d="M881.073 54.1865L878.956 56.3036L876.839 54.1865L878.956 52.0694L881.073 54.1865ZM889.672 67.0192L878.956 56.3036L883.19 52.0694L893.906 62.785L889.672 67.0192ZM878.956 52.0694L889.672 41.3538L893.906 45.588L883.19 56.3036L878.956 52.0694Z" fill="#33C0FF"/>
<path d="M902.211 54.1865L900.094 56.3036L897.977 54.1865L900.094 52.0694L902.211 54.1865ZM910.809 67.0192L900.094 56.3036L904.328 52.0694L915.044 62.785L910.809 67.0192ZM900.094 52.0694L910.809 41.3538L915.044 45.588L904.328 56.3036L900.094 52.0694Z" fill="#33C0FF"/>
<path d="M151.489 37.084V71.7131H140.63V37.084H151.489Z" fill="#BF43D4"/>
<path d="M192.049 71.7131H181.191L169.697 54.3007V71.7131H158.838V37.084H169.697L181.191 54.7898V37.084H192.049V71.7131Z" fill="#BF43D4"/>
<path d="M232.611 71.7131H221.753L210.259 54.3007V71.7131H199.4V37.084H210.259L221.753 54.7898V37.084H232.611V71.7131Z" fill="#BF43D4"/>
<path d="M256.837 72.0555C253.576 72.0555 250.576 71.2892 247.837 69.7567C245.131 68.2241 242.979 66.1046 241.381 63.3982C239.783 60.6918 238.984 57.643 238.984 54.2518C238.984 50.8606 239.783 47.8118 241.381 45.1054C242.979 42.399 245.131 40.2958 247.837 38.7958C250.576 37.2633 253.576 36.497 256.837 36.497C260.097 36.497 263.081 37.2633 265.787 38.7958C268.494 40.2958 270.63 42.399 272.195 45.1054C273.793 47.8118 274.591 50.8606 274.591 54.2518C274.591 57.643 273.793 60.6918 272.195 63.3982C270.63 66.1046 268.478 68.2241 265.739 69.7567C263.032 71.2892 260.065 72.0555 256.837 72.0555ZM256.837 61.9309C258.989 61.9309 260.652 61.2461 261.826 59.8766C263 58.4745 263.586 56.5995 263.586 54.2518C263.586 51.8715 263 49.9965 261.826 48.627C260.652 47.2249 258.989 46.5238 256.837 46.5238C254.652 46.5238 252.973 47.2249 251.799 48.627C250.625 49.9965 250.038 51.8715 250.038 54.2518C250.038 56.5995 250.625 58.4745 251.799 59.8766C252.973 61.2461 254.652 61.9309 256.837 61.9309Z" fill="#BF43D4"/>
<path d="M315.828 37.084L304.187 71.7131H290.149L278.509 37.084H290.052L297.193 60.9037L304.285 37.084H315.828Z" fill="#BF43D4"/>
<path d="M342.91 66.4796H331.367L329.655 71.7131H318.259L330.927 37.084H343.448L356.067 71.7131H344.622L342.91 66.4796ZM340.269 58.3114L337.138 48.6759L334.008 58.3114H340.269Z" fill="#BF43D4"/>
<path d="M360.001 54.3496C360.001 50.9258 360.686 47.877 362.056 45.2032C363.458 42.5294 365.447 40.4588 368.023 38.9915C370.599 37.4915 373.631 36.7416 377.12 36.7416C380.12 36.7416 382.794 37.3122 385.142 38.4535C387.522 39.5621 389.446 41.1436 390.913 43.1979C392.413 45.2521 393.408 47.6488 393.897 50.3878H382.452C381.93 49.2466 381.18 48.3662 380.202 47.7466C379.256 47.0945 378.164 46.7684 376.925 46.7684C375.099 46.7684 373.648 47.4531 372.571 48.8227C371.528 50.1922 371.006 52.0345 371.006 54.3496C371.006 56.6648 371.528 58.5071 372.571 59.8766C373.648 61.2461 375.099 61.9309 376.925 61.9309C378.164 61.9309 379.256 61.6211 380.202 61.0016C381.18 60.3494 381.93 59.4527 382.452 58.3114H393.897C393.408 61.0505 392.413 63.4471 390.913 65.5014C389.446 67.5557 387.522 69.1534 385.142 70.2947C382.794 71.4034 380.12 71.9577 377.12 71.9577C373.631 71.9577 370.599 71.224 368.023 69.7567C365.447 68.2567 363.458 66.1699 362.056 63.496C360.686 60.8222 360.001 57.7734 360.001 54.3496Z" fill="#BF43D4"/>
<path d="M411.11 37.084V71.7131H400.252V37.084H411.11Z" fill="#BF43D4"/>
<path d="M435.334 72.0555C432.073 72.0555 429.074 71.2892 426.335 69.7567C423.628 68.2241 421.476 66.1046 419.878 63.3982C418.28 60.6918 417.482 57.643 417.482 54.2518C417.482 50.8606 418.28 47.8118 419.878 45.1054C421.476 42.399 423.628 40.2958 426.335 38.7958C429.074 37.2633 432.073 36.497 435.334 36.497C438.595 36.497 441.579 37.2633 444.285 38.7958C446.991 40.2958 449.127 42.399 450.692 45.1054C452.29 47.8118 453.089 50.8606 453.089 54.2518C453.089 57.643 452.29 60.6918 450.692 63.3982C449.127 66.1046 446.975 68.2241 444.236 69.7567C441.53 71.2892 438.562 72.0555 435.334 72.0555ZM435.334 61.9309C437.486 61.9309 439.149 61.2461 440.323 59.8766C441.497 58.4745 442.084 56.5995 442.084 54.2518C442.084 51.8715 441.497 49.9965 440.323 48.627C439.149 47.2249 437.486 46.5238 435.334 46.5238C433.15 46.5238 431.47 47.2249 430.296 48.627C429.123 49.9965 428.536 51.8715 428.536 54.2518C428.536 56.5995 429.123 58.4745 430.296 59.8766C431.47 61.2461 433.15 61.9309 435.334 61.9309ZM441.595 30.4809L428.927 35.0786V27.8397L441.595 22.4595V30.4809Z" fill="#BF43D4"/>
<path d="M492.662 71.7131H481.804L470.31 54.3007V71.7131H459.452V37.084H470.31L481.804 54.7898V37.084H492.662V71.7131Z" fill="#BF43D4"/>
<path d="M544.03 37.084L531.607 61.1972V71.7131H520.748V61.1972L508.325 37.084H520.748L526.275 49.3607L531.802 37.084H544.03Z" fill="#BF43D4"/>
<path d="M570.559 63.496H581.026V71.7131H559.701V37.084H570.559V63.496Z" fill="#BF43D4"/>
<path d="M597.747 37.084V71.7131H586.888V37.084H597.747Z" fill="#BF43D4"/>
<path d="M619.525 37.084C623.145 37.084 626.308 37.8176 629.014 39.285C631.753 40.7523 633.856 42.7903 635.324 45.3989C636.791 48.0075 637.525 50.9748 637.525 54.3007C637.525 57.5941 636.791 60.5614 635.324 63.2026C633.856 65.8438 631.753 67.9307 629.014 69.4632C626.308 70.9632 623.145 71.7131 619.525 71.7131H605.096V37.084H619.525ZM618.547 62.0287C620.993 62.0287 622.933 61.3603 624.368 60.0233C625.802 58.6864 626.52 56.7789 626.52 54.3007C626.52 51.8225 625.802 49.915 624.368 48.5781C622.933 47.2412 620.993 46.5727 618.547 46.5727H615.955V62.0287H618.547Z" fill="#BF43D4"/>
<path d="M654.75 45.7412V49.9965H665.51V58.1647H654.75V63.0558H666.977V71.7131H643.891V37.084H666.977V45.7412H654.75Z" fill="#BF43D4"/>
<path d="M690.927 71.7131L684.422 59.2897H684.373V71.7131H673.515V37.084H689.656C692.46 37.084 694.857 37.5894 696.846 38.6002C698.835 39.5784 700.318 40.9316 701.297 42.6598C702.307 44.3554 702.813 46.2793 702.813 48.4314C702.813 50.7465 702.161 52.8008 700.856 54.5942C699.585 56.3876 697.742 57.6756 695.329 58.4582L702.862 71.7131H690.927ZM684.373 52.0508H688.677C689.721 52.0508 690.503 51.8225 691.025 51.366C691.547 50.8769 691.808 50.127 691.808 49.1161C691.808 48.2031 691.531 47.4857 690.976 46.964C690.455 46.4423 689.688 46.1814 688.677 46.1814H684.373V52.0508Z" fill="#BF43D4"/>
<path d="M730.933 66.4796H719.39L717.678 71.7131H706.282L718.95 37.084H731.471L744.09 71.7131H732.645L730.933 66.4796ZM728.292 58.3114L725.161 48.6759L722.031 58.3114H728.292Z" fill="#BF43D4"/>
<path d="M761.035 63.0558H774.926V71.7131H749.003V63.545L762.698 45.6923H749.003V37.084H774.926V45.2521L761.035 63.0558Z" fill="#BF43D4"/>
<path d="M803.484 48.9205C803.06 48.2357 802.457 47.714 801.674 47.3553C800.892 46.964 799.946 46.7684 798.838 46.7684C796.751 46.7684 795.137 47.4531 793.995 48.8227C792.854 50.1596 792.283 52.0019 792.283 54.3496C792.283 57.0561 792.919 59.0777 794.191 60.4146C795.463 61.7515 797.419 62.42 800.06 62.42C802.571 62.42 804.593 61.4092 806.125 59.3875H797.468V51.7084H815.125V62.5667C813.625 65.1427 811.554 67.36 808.913 69.2187C806.272 71.0447 802.93 71.9577 798.886 71.9577C795.3 71.9577 792.169 71.224 789.495 69.7567C786.854 68.2567 784.816 66.1699 783.382 63.496C781.979 60.8222 781.278 57.7734 781.278 54.3496C781.278 50.9258 781.979 47.877 783.382 45.2032C784.816 42.5294 786.854 40.4588 789.495 38.9915C792.137 37.4915 795.234 36.7416 798.789 36.7416C803.321 36.7416 807.006 37.8339 809.843 40.0186C812.712 42.2033 814.408 45.1706 814.929 48.9205H803.484Z" fill="#BF43D4"/>
<path d="M838.356 72.0555C835.095 72.0555 832.095 71.2892 829.356 69.7567C826.649 68.2241 824.497 66.1046 822.9 63.3982C821.302 60.6918 820.503 57.643 820.503 54.2518C820.503 50.8606 821.302 47.8118 822.9 45.1054C824.497 42.399 826.649 40.2958 829.356 38.7958C832.095 37.2633 835.095 36.497 838.356 36.497C841.616 36.497 844.6 37.2633 847.306 38.7958C850.013 40.2958 852.149 42.399 853.714 45.1054C855.311 47.8118 856.11 50.8606 856.11 54.2518C856.11 57.643 855.311 60.6918 853.714 63.3982C852.149 66.1046 849.996 68.2241 847.257 69.7567C844.551 71.2892 841.584 72.0555 838.356 72.0555ZM838.356 61.9309C840.508 61.9309 842.171 61.2461 843.344 59.8766C844.518 58.4745 845.105 56.5995 845.105 54.2518C845.105 51.8715 844.518 49.9965 843.344 48.627C842.171 47.2249 840.508 46.5238 838.356 46.5238C836.171 46.5238 834.492 47.2249 833.318 48.627C832.144 49.9965 831.557 51.8715 831.557 54.2518C831.557 56.5995 832.144 58.4745 833.318 59.8766C834.492 61.2461 836.171 61.9309 838.356 61.9309Z" fill="#BF43D4"/>
<path d="M4.62436 6.71567V10.0544H10.0087V13.158H4.62436V16.7789H10.714V20.0001H0.60376V3.49449H10.714V6.71567H4.62436Z" fill="black"/>
<path d="M22.494 6.73918C24.0302 6.73918 25.2528 7.24077 26.1619 8.24396C27.0868 9.23148 27.5492 10.5952 27.5492 12.3351V20.0001H23.5521V12.8759C23.5521 11.9981 23.3248 11.3162 22.8702 10.8303C22.4157 10.3444 21.8043 10.1014 21.0363 10.1014C20.2682 10.1014 19.6569 10.3444 19.2023 10.8303C18.7477 11.3162 18.5205 11.9981 18.5205 12.8759V20.0001H14.4999V6.88025H18.5205V8.62016C18.928 8.04019 19.4766 7.58562 20.1663 7.25645C20.856 6.9116 21.6319 6.73918 22.494 6.73918Z" fill="black"/>
<path d="M30.7193 13.4402C30.7193 12.0765 30.9936 10.8852 31.5422 9.86631C32.1065 8.84744 32.8824 8.0637 33.8699 7.51508C34.8731 6.96646 36.0174 6.69215 37.3027 6.69215C38.9486 6.69215 40.3201 7.12321 41.4174 7.98533C42.5303 8.84744 43.2592 10.0622 43.604 11.6297H39.3248C38.9642 10.6265 38.2667 10.1249 37.2322 10.1249C36.4955 10.1249 35.9077 10.4149 35.4688 10.9949C35.0299 11.5592 34.8104 12.3743 34.8104 13.4402C34.8104 14.5061 35.0299 15.329 35.4688 15.909C35.9077 16.4733 36.4955 16.7554 37.2322 16.7554C38.2667 16.7554 38.9642 16.2538 39.3248 15.2506H43.604C43.2592 16.7867 42.5303 17.9937 41.4174 18.8715C40.3044 19.7493 38.9329 20.1882 37.3027 20.1882C36.0174 20.1882 34.8731 19.9139 33.8699 19.3653C32.8824 18.8166 32.1065 18.0329 31.5422 17.014C30.9936 15.9952 30.7193 14.8039 30.7193 13.4402Z" fill="black"/>
<path d="M59.8855 6.88025V20.0001H55.8649V18.2132C55.4574 18.7931 54.9009 19.2634 54.1955 19.6239C53.5058 19.9687 52.7378 20.1412 51.8913 20.1412C50.8881 20.1412 50.0025 19.9217 49.2344 19.4828C48.4664 19.0283 47.8707 18.3777 47.4475 17.5313C47.0243 16.6849 46.8127 15.6895 46.8127 14.5452V6.88025H50.8098V14.0045C50.8098 14.8823 51.0371 15.5641 51.4916 16.05C51.9462 16.536 52.5575 16.7789 53.3256 16.7789C54.1093 16.7789 54.7285 16.536 55.183 16.05C55.6376 15.5641 55.8649 14.8823 55.8649 14.0045V6.88025H59.8855Z" fill="black"/>
<path d="M76.3165 13.2286C76.3165 13.6048 76.293 13.9966 76.246 14.4042H67.1467C67.2094 15.2193 67.4681 15.8463 67.9227 16.2852C68.3929 16.7084 68.965 16.92 69.6391 16.92C70.6422 16.92 71.3398 16.4968 71.7316 15.6503H76.0109C75.7914 16.5124 75.3917 17.2883 74.8117 17.978C74.2474 18.6677 73.5343 19.2085 72.6721 19.6004C71.81 19.9923 70.846 20.1882 69.7801 20.1882C68.4948 20.1882 67.3505 19.9139 66.3473 19.3653C65.3441 18.8166 64.5604 18.0329 63.9961 17.014C63.4318 15.9952 63.1497 14.8039 63.1497 13.4402C63.1497 12.0765 63.424 10.8852 63.9726 9.86631C64.5369 8.84744 65.3206 8.0637 66.3238 7.51508C67.327 6.96646 68.4791 6.69215 69.7801 6.69215C71.0498 6.69215 72.1784 6.95863 73.1659 7.49157C74.1534 8.02452 74.9215 8.78474 75.4701 9.77226C76.0344 10.7598 76.3165 11.9119 76.3165 13.2286ZM72.2019 12.1705C72.2019 11.4808 71.9668 10.9322 71.4965 10.5247C71.0263 10.1171 70.4385 9.91333 69.7331 9.91333C69.0591 9.91333 68.487 10.1093 68.0167 10.5011C67.5621 10.893 67.28 11.4495 67.1703 12.1705H72.2019Z" fill="black"/>
<path d="M87.6074 6.73918C89.1435 6.73918 90.3661 7.24077 91.2753 8.24396C92.2001 9.23148 92.6625 10.5952 92.6625 12.3351V20.0001H88.6654V12.8759C88.6654 11.9981 88.4381 11.3162 87.9836 10.8303C87.529 10.3444 86.9177 10.1014 86.1496 10.1014C85.3815 10.1014 84.7702 10.3444 84.3157 10.8303C83.8611 11.3162 83.6338 11.9981 83.6338 12.8759V20.0001H79.6132V6.88025H83.6338V8.62016C84.0413 8.04019 84.59 7.58562 85.2797 7.25645C85.9694 6.9116 86.7453 6.73918 87.6074 6.73918Z" fill="black"/>
<path d="M103.944 16.5908V20.0001H101.899C100.441 20.0001 99.3046 19.6474 98.4895 18.942C97.6744 18.221 97.2669 17.0532 97.2669 15.4387V10.219H95.668V6.88025H97.2669V3.68259H101.287V6.88025H103.921V10.219H101.287V15.4857C101.287 15.8776 101.382 16.1598 101.57 16.3322C101.758 16.5046 102.071 16.5908 102.51 16.5908H103.944Z" fill="black"/>
<path d="M111.38 9.06689C111.85 8.34585 112.438 7.78156 113.144 7.37401C113.849 6.95079 114.633 6.73918 115.495 6.73918V10.9949H114.39C113.386 10.9949 112.634 11.2143 112.132 11.6532C111.631 12.0765 111.38 12.8289 111.38 13.9104V20.0001H107.359V6.88025H111.38V9.06689Z" fill="black"/>
<path d="M124.564 20.1882C123.279 20.1882 122.119 19.9139 121.084 19.3653C120.066 18.8166 119.258 18.0329 118.663 17.014C118.083 15.9952 117.793 14.8039 117.793 13.4402C117.793 12.0921 118.09 10.9087 118.686 9.88982C119.282 8.85528 120.097 8.0637 121.131 7.51508C122.166 6.96646 123.326 6.69215 124.611 6.69215C125.897 6.69215 127.057 6.96646 128.091 7.51508C129.126 8.0637 129.941 8.85528 130.536 9.88982C131.132 10.9087 131.43 12.0921 131.43 13.4402C131.43 14.7882 131.124 15.9795 130.513 17.014C129.917 18.0329 129.094 18.8166 128.044 19.3653C127.009 19.9139 125.85 20.1882 124.564 20.1882ZM124.564 16.7084C125.332 16.7084 125.983 16.4262 126.516 15.8619C127.064 15.2976 127.339 14.4904 127.339 13.4402C127.339 12.39 127.072 11.5827 126.539 11.0184C126.022 10.4541 125.379 10.172 124.611 10.172C123.827 10.172 123.177 10.4541 122.66 11.0184C122.142 11.567 121.884 12.3743 121.884 13.4402C121.884 14.4904 122.135 15.2976 122.636 15.8619C123.153 16.4262 123.796 16.7084 124.564 16.7084Z" fill="black"/>
<path d="M140.097 13.4167C140.097 12.0686 140.348 10.8852 140.85 9.86631C141.367 8.84744 142.064 8.0637 142.942 7.51508C143.82 6.96646 144.8 6.69215 145.881 6.69215C146.743 6.69215 147.527 6.87241 148.232 7.23293C148.953 7.59346 149.518 8.07938 149.925 8.69069V2.60102H153.946V20.0001H149.925V18.1191C149.549 18.7461 149.008 19.2477 148.303 19.6239C147.613 20.0001 146.806 20.1882 145.881 20.1882C144.8 20.1882 143.82 19.9139 142.942 19.3653C142.064 18.801 141.367 18.0094 140.85 16.9905C140.348 15.956 140.097 14.7647 140.097 13.4167ZM149.925 13.4402C149.925 12.437 149.643 11.6454 149.079 11.0654C148.53 10.4855 147.856 10.1955 147.057 10.1955C146.257 10.1955 145.576 10.4855 145.011 11.0654C144.463 11.6297 144.188 12.4135 144.188 13.4167C144.188 14.4198 144.463 15.2193 145.011 15.8149C145.576 16.3949 146.257 16.6849 147.057 16.6849C147.856 16.6849 148.53 16.3949 149.079 15.8149C149.643 15.2349 149.925 14.4434 149.925 13.4402Z" fill="black"/>
<path d="M170.398 13.2286C170.398 13.6048 170.374 13.9966 170.327 14.4042H161.228C161.291 15.2193 161.549 15.8463 162.004 16.2852C162.474 16.7084 163.046 16.92 163.72 16.92C164.723 16.92 165.421 16.4968 165.813 15.6503H170.092C169.873 16.5124 169.473 17.2883 168.893 17.978C168.329 18.6677 167.615 19.2085 166.753 19.6004C165.891 19.9923 164.927 20.1882 163.861 20.1882C162.576 20.1882 161.432 19.9139 160.428 19.3653C159.425 18.8166 158.642 18.0329 158.077 17.014C157.513 15.9952 157.231 14.8039 157.231 13.4402C157.231 12.0765 157.505 10.8852 158.054 9.86631C158.618 8.84744 159.402 8.0637 160.405 7.51508C161.408 6.96646 162.56 6.69215 163.861 6.69215C165.131 6.69215 166.26 6.95863 167.247 7.49157C168.235 8.02452 169.003 8.78474 169.551 9.77226C170.116 10.7598 170.398 11.9119 170.398 13.2286ZM166.283 12.1705C166.283 11.4808 166.048 10.9322 165.578 10.5247C165.107 10.1171 164.52 9.91333 163.814 9.91333C163.14 9.91333 162.568 10.1093 162.098 10.5011C161.643 10.893 161.361 11.4495 161.251 12.1705H166.283Z" fill="black"/>
<path d="M186.436 10.219H184.273V20.0001H180.252V10.219H178.794V6.88025H180.252V6.50406C180.252 4.88955 180.715 3.66691 181.639 2.83614C182.564 1.9897 183.92 1.56648 185.707 1.56648C186.005 1.56648 186.224 1.57432 186.365 1.58999V4.99927C185.597 4.95225 185.057 5.06197 184.743 5.32844C184.43 5.59492 184.273 6.073 184.273 6.76269V6.88025H186.436V10.219Z" fill="black"/>
<path d="M195.473 20.1882C194.188 20.1882 193.028 19.9139 191.993 19.3653C190.974 18.8166 190.167 18.0329 189.571 17.014C188.991 15.9952 188.701 14.8039 188.701 13.4402C188.701 12.0921 188.999 10.9087 189.595 9.88982C190.191 8.85528 191.006 8.0637 192.04 7.51508C193.075 6.96646 194.235 6.69215 195.52 6.69215C196.805 6.69215 197.965 6.96646 199 7.51508C200.034 8.0637 200.849 8.85528 201.445 9.88982C202.041 10.9087 202.339 12.0921 202.339 13.4402C202.339 14.7882 202.033 15.9795 201.422 17.014C200.826 18.0329 200.003 18.8166 198.953 19.3653C197.918 19.9139 196.758 20.1882 195.473 20.1882ZM195.473 16.7084C196.241 16.7084 196.892 16.4262 197.424 15.8619C197.973 15.2976 198.247 14.4904 198.247 13.4402C198.247 12.39 197.981 11.5827 197.448 11.0184C196.931 10.4541 196.288 10.172 195.52 10.172C194.736 10.172 194.086 10.4541 193.568 11.0184C193.051 11.567 192.793 12.3743 192.793 13.4402C192.793 14.4904 193.043 15.2976 193.545 15.8619C194.062 16.4262 194.705 16.7084 195.473 16.7084Z" fill="black"/>
<path d="M209.668 9.06689C210.138 8.34585 210.726 7.78156 211.431 7.37401C212.137 6.95079 212.92 6.73918 213.782 6.73918V10.9949H212.677C211.674 10.9949 210.922 11.2143 210.42 11.6532C209.919 12.0765 209.668 12.8289 209.668 13.9104V20.0001H205.647V6.88025H209.668V9.06689Z" fill="black"/>
<path d="M233.62 6.73918C235.251 6.73918 236.544 7.23294 237.5 8.22045C238.472 9.20796 238.958 10.5795 238.958 12.3351V20.0001H234.961V12.8759C234.961 12.0294 234.733 11.3789 234.279 10.9244C233.84 10.4541 233.229 10.219 232.445 10.219C231.661 10.219 231.042 10.4541 230.587 10.9244C230.149 11.3789 229.929 12.0294 229.929 12.8759V20.0001H225.932V12.8759C225.932 12.0294 225.705 11.3789 225.25 10.9244C224.811 10.4541 224.2 10.219 223.416 10.219C222.632 10.219 222.013 10.4541 221.559 10.9244C221.12 11.3789 220.9 12.0294 220.9 12.8759V20.0001H216.88V6.88025H220.9V8.52611C221.308 7.97749 221.841 7.54643 222.499 7.23293C223.158 6.90376 223.902 6.73918 224.733 6.73918C225.72 6.73918 226.598 6.95079 227.366 7.37401C228.15 7.79723 228.761 8.40071 229.2 9.18445C229.655 8.46341 230.274 7.8756 231.058 7.42103C231.841 6.96646 232.696 6.73918 233.62 6.73918Z" fill="black"/>
<path d="M242.146 13.4167C242.146 12.0686 242.397 10.8852 242.898 9.86631C243.416 8.84744 244.113 8.0637 244.991 7.51508C245.869 6.96646 246.848 6.69215 247.93 6.69215C248.855 6.69215 249.662 6.88025 250.352 7.25645C251.057 7.63264 251.598 8.1264 251.974 8.73772V6.88025H255.995V20.0001H251.974V18.1426C251.582 18.7539 251.034 19.2477 250.328 19.6239C249.638 20.0001 248.831 20.1882 247.906 20.1882C246.841 20.1882 245.869 19.9139 244.991 19.3653C244.113 18.801 243.416 18.0094 242.898 16.9905C242.397 15.956 242.146 14.7647 242.146 13.4167ZM251.974 13.4402C251.974 12.437 251.692 11.6454 251.128 11.0654C250.579 10.4855 249.905 10.1955 249.106 10.1955C248.306 10.1955 247.624 10.4855 247.06 11.0654C246.511 11.6297 246.237 12.4135 246.237 13.4167C246.237 14.4198 246.511 15.2193 247.06 15.8149C247.624 16.3949 248.306 16.6849 249.106 16.6849C249.905 16.6849 250.579 16.3949 251.128 15.8149C251.692 15.2349 251.974 14.4434 251.974 13.4402Z" fill="black"/>
<path d="M259.28 13.4402C259.28 12.0765 259.554 10.8852 260.102 9.86631C260.667 8.84744 261.443 8.0637 262.43 7.51508C263.433 6.96646 264.578 6.69215 265.863 6.69215C267.509 6.69215 268.88 7.12321 269.978 7.98533C271.091 8.84744 271.819 10.0622 272.164 11.6297H267.885C267.524 10.6265 266.827 10.1249 265.792 10.1249C265.056 10.1249 264.468 10.4149 264.029 10.9949C263.59 11.5592 263.371 12.3743 263.371 13.4402C263.371 14.5061 263.59 15.329 264.029 15.909C264.468 16.4733 265.056 16.7554 265.792 16.7554C266.827 16.7554 267.524 16.2538 267.885 15.2506H272.164C271.819 16.7867 271.091 17.9937 269.978 18.8715C268.865 19.7493 267.493 20.1882 265.863 20.1882C264.578 20.1882 263.433 19.9139 262.43 19.3653C261.443 18.8166 260.667 18.0329 260.102 17.014C259.554 15.9952 259.28 14.8039 259.28 13.4402Z" fill="black"/>
<path d="M277.513 5.51654C276.807 5.51654 276.227 5.31277 275.773 4.90522C275.334 4.482 275.114 3.96473 275.114 3.35341C275.114 2.72642 275.334 2.20915 275.773 1.8016C276.227 1.37838 276.807 1.16677 277.513 1.16677C278.202 1.16677 278.767 1.37838 279.205 1.8016C279.66 2.20915 279.887 2.72642 279.887 3.35341C279.887 3.96473 279.66 4.482 279.205 4.90522C278.767 5.31277 278.202 5.51654 277.513 5.51654ZM279.511 6.88025V20.0001H275.49V6.88025H279.511Z" fill="black"/>
<path d="M289.572 20.1882C288.287 20.1882 287.127 19.9139 286.093 19.3653C285.074 18.8166 284.267 18.0329 283.671 17.014C283.091 15.9952 282.801 14.8039 282.801 13.4402C282.801 12.0921 283.099 10.9087 283.694 9.88982C284.29 8.85528 285.105 8.0637 286.14 7.51508C287.174 6.96646 288.334 6.69215 289.62 6.69215C290.905 6.69215 292.065 6.96646 293.099 7.51508C294.134 8.0637 294.949 8.85528 295.545 9.88982C296.14 10.9087 296.438 12.0921 296.438 13.4402C296.438 14.7882 296.132 15.9795 295.521 17.014C294.925 18.0329 294.103 18.8166 293.052 19.3653C292.018 19.9139 290.858 20.1882 289.572 20.1882ZM289.572 16.7084C290.341 16.7084 290.991 16.4262 291.524 15.8619C292.073 15.2976 292.347 14.4904 292.347 13.4402C292.347 12.39 292.08 11.5827 291.548 11.0184C291.03 10.4541 290.388 10.172 289.62 10.172C288.836 10.172 288.185 10.4541 287.668 11.0184C287.151 11.567 286.892 12.3743 286.892 13.4402C286.892 14.4904 287.143 15.2976 287.644 15.8619C288.162 16.4262 288.804 16.7084 289.572 16.7084ZM292.676 3.518L287.01 5.89274V3.11829L292.676 0.390869V3.518Z" fill="black"/>
<path d="M307.741 6.73918C309.277 6.73918 310.5 7.24077 311.409 8.24396C312.334 9.23148 312.796 10.5952 312.796 12.3351V20.0001H308.799V12.8759C308.799 11.9981 308.572 11.3162 308.117 10.8303C307.662 10.3444 307.051 10.1014 306.283 10.1014C305.515 10.1014 304.904 10.3444 304.449 10.8303C303.995 11.3162 303.767 11.9981 303.767 12.8759V20.0001H299.747V6.88025H303.767V8.62016C304.175 8.04019 304.723 7.58562 305.413 7.25645C306.103 6.9116 306.879 6.73918 307.741 6.73918Z" fill="black"/>
<path d="M335.291 13.2286C335.291 13.6048 335.268 13.9966 335.221 14.4042H326.121C326.184 15.2193 326.443 15.8463 326.897 16.2852C327.368 16.7084 327.94 16.92 328.614 16.92C329.617 16.92 330.314 16.4968 330.706 15.6503H334.986C334.766 16.5124 334.366 17.2883 333.786 17.978C333.222 18.6677 332.509 19.2085 331.647 19.6004C330.785 19.9923 329.821 20.1882 328.755 20.1882C327.469 20.1882 326.325 19.9139 325.322 19.3653C324.319 18.8166 323.535 18.0329 322.971 17.014C322.406 15.9952 322.124 14.8039 322.124 13.4402C322.124 12.0765 322.399 10.8852 322.947 9.86631C323.511 8.84744 324.295 8.0637 325.298 7.51508C326.302 6.96646 327.454 6.69215 328.755 6.69215C330.024 6.69215 331.153 6.95863 332.141 7.49157C333.128 8.02452 333.896 8.78474 334.445 9.77226C335.009 10.7598 335.291 11.9119 335.291 13.2286ZM331.177 12.1705C331.177 11.4808 330.941 10.9322 330.471 10.5247C330.001 10.1171 329.413 9.91333 328.708 9.91333C328.034 9.91333 327.462 10.1093 326.991 10.5011C326.537 10.893 326.255 11.4495 326.145 12.1705H331.177Z" fill="black"/>
<path d="M346.582 6.73918C348.118 6.73918 349.341 7.24077 350.25 8.24396C351.175 9.23148 351.637 10.5952 351.637 12.3351V20.0001H347.64V12.8759C347.64 11.9981 347.413 11.3162 346.958 10.8303C346.504 10.3444 345.892 10.1014 345.124 10.1014C344.356 10.1014 343.745 10.3444 343.29 10.8303C342.836 11.3162 342.608 11.9981 342.608 12.8759V20.0001H338.588V6.88025H342.608V8.62016C343.016 8.04019 343.565 7.58562 344.254 7.25645C344.944 6.9116 345.72 6.73918 346.582 6.73918Z" fill="black"/>
<path d="M561.913 95.9682C562.305 95.3568 562.846 94.8631 563.536 94.4869C564.225 94.1107 565.032 93.9226 565.957 93.9226C567.039 93.9226 568.019 94.1969 568.896 94.7455C569.774 95.2941 570.464 96.0779 570.965 97.0968C571.483 98.1156 571.741 99.2991 571.741 100.647C571.741 101.995 571.483 103.186 570.965 104.221C570.464 105.24 569.774 106.031 568.896 106.596C568.019 107.144 567.039 107.419 565.957 107.419C565.048 107.419 564.241 107.231 563.536 106.854C562.846 106.478 562.305 105.992 561.913 105.397V113.485H557.893V94.1107H561.913V95.9682ZM567.65 100.647C567.65 99.6439 567.368 98.8602 566.804 98.2959C566.255 97.7159 565.573 97.4259 564.758 97.4259C563.959 97.4259 563.277 97.7159 562.713 98.2959C562.164 98.8758 561.89 99.6674 561.89 100.671C561.89 101.674 562.164 102.465 562.713 103.045C563.277 103.625 563.959 103.915 564.758 103.915C565.558 103.915 566.239 103.625 566.804 103.045C567.368 102.45 567.65 101.65 567.65 100.647Z" fill="black"/>
<path d="M574.227 100.647C574.227 99.2991 574.478 98.1156 574.979 97.0968C575.496 96.0779 576.194 95.2941 577.072 94.7455C577.95 94.1969 578.929 93.9226 580.011 93.9226C580.936 93.9226 581.743 94.1107 582.433 94.4869C583.138 94.8631 583.679 95.3568 584.055 95.9682V94.1107H588.076V107.231H584.055V105.373C583.663 105.984 583.114 106.478 582.409 106.854C581.719 107.231 580.912 107.419 579.987 107.419C578.921 107.419 577.95 107.144 577.072 106.596C576.194 106.031 575.496 105.24 574.979 104.221C574.478 103.186 574.227 101.995 574.227 100.647ZM584.055 100.671C584.055 99.6674 583.773 98.8758 583.208 98.2959C582.66 97.7159 581.986 97.4259 581.186 97.4259C580.387 97.4259 579.705 97.7159 579.141 98.2959C578.592 98.8602 578.318 99.6439 578.318 100.647C578.318 101.65 578.592 102.45 579.141 103.045C579.705 103.625 580.387 103.915 581.186 103.915C581.986 103.915 582.66 103.625 583.208 103.045C583.773 102.465 584.055 101.674 584.055 100.671Z" fill="black"/>
<path d="M596.18 96.2973C596.651 95.5763 597.239 95.012 597.944 94.6045C598.649 94.1812 599.433 93.9696 600.295 93.9696V98.2253H599.19C598.187 98.2253 597.434 98.4448 596.933 98.8837C596.431 99.3069 596.18 100.059 596.18 101.141V107.231H592.16V94.1107H596.18V96.2973Z" fill="black"/>
<path d="M602.593 100.647C602.593 99.2991 602.844 98.1156 603.345 97.0968C603.863 96.0779 604.56 95.2941 605.438 94.7455C606.316 94.1969 607.296 93.9226 608.377 93.9226C609.302 93.9226 610.109 94.1107 610.799 94.4869C611.504 94.8631 612.045 95.3568 612.421 95.9682V94.1107H616.442V107.231H612.421V105.373C612.029 105.984 611.481 106.478 610.775 106.854C610.086 107.231 609.278 107.419 608.354 107.419C607.288 107.419 606.316 107.144 605.438 106.596C604.56 106.031 603.863 105.24 603.345 104.221C602.844 103.186 602.593 101.995 602.593 100.647ZM612.421 100.671C612.421 99.6674 612.139 98.8758 611.575 98.2959C611.026 97.7159 610.352 97.4259 609.553 97.4259C608.753 97.4259 608.071 97.7159 607.507 98.2959C606.958 98.8602 606.684 99.6439 606.684 100.647C606.684 101.65 606.958 102.45 607.507 103.045C608.071 103.625 608.753 103.915 609.553 103.915C610.352 103.915 611.026 103.625 611.575 103.045C612.139 102.465 612.421 101.674 612.421 100.671Z" fill="black"/>
<path d="M634.678 93.9696C636.215 93.9696 637.437 94.4712 638.346 95.4744C639.271 96.4619 639.734 97.8256 639.734 99.5655V107.231H635.737V100.106C635.737 99.2285 635.509 98.5467 635.055 98.0608C634.6 97.5748 633.989 97.3319 633.221 97.3319C632.453 97.3319 631.841 97.5748 631.387 98.0608C630.932 98.5467 630.705 99.2285 630.705 100.106V107.231H626.684V94.1107H630.705V95.8506C631.112 95.2706 631.661 94.8161 632.351 94.4869C633.04 94.142 633.816 93.9696 634.678 93.9696Z" fill="black"/>
<path d="M656.658 94.1107V107.231H652.638V105.444C652.23 106.024 651.674 106.494 650.968 106.854C650.279 107.199 649.511 107.372 648.664 107.372C647.661 107.372 646.775 107.152 646.007 106.713C645.239 106.259 644.644 105.608 644.22 104.762C643.797 103.915 643.586 102.92 643.586 101.776V94.1107H647.583V101.235C647.583 102.113 647.81 102.795 648.264 103.28C648.719 103.766 649.33 104.009 650.098 104.009C650.882 104.009 651.501 103.766 651.956 103.28C652.41 102.795 652.638 102.113 652.638 101.235V94.1107H656.658Z" fill="black"/>
<path d="M673.089 100.459C673.089 100.835 673.066 101.227 673.019 101.635H663.92C663.982 102.45 664.241 103.077 664.696 103.516C665.166 103.939 665.738 104.15 666.412 104.15C667.415 104.15 668.113 103.727 668.505 102.881H672.784C672.564 103.743 672.165 104.519 671.585 105.208C671.02 105.898 670.307 106.439 669.445 106.831C668.583 107.223 667.619 107.419 666.553 107.419C665.268 107.419 664.123 107.144 663.12 106.596C662.117 106.047 661.333 105.263 660.769 104.244C660.205 103.226 659.923 102.034 659.923 100.671C659.923 99.3069 660.197 98.1156 660.745 97.0968C661.31 96.0779 662.094 95.2941 663.097 94.7455C664.1 94.1969 665.252 93.9226 666.553 93.9226C667.823 93.9226 668.951 94.1891 669.939 94.722C670.926 95.255 671.694 96.0152 672.243 97.0027C672.807 97.9902 673.089 99.1423 673.089 100.459ZM668.975 99.401C668.975 98.7113 668.74 98.1626 668.269 97.7551C667.799 97.3475 667.211 97.1438 666.506 97.1438C665.832 97.1438 665.26 97.3397 664.79 97.7316C664.335 98.1235 664.053 98.6799 663.943 99.401H668.975Z" fill="black"/>
<path d="M682.288 103.469L685.133 94.1107H689.412L684.756 107.231H679.795L675.14 94.1107H679.443L682.288 103.469Z" fill="black"/>
<path d="M691.48 100.647C691.48 99.2991 691.731 98.1156 692.233 97.0968C692.75 96.0779 693.448 95.2941 694.325 94.7455C695.203 94.1969 696.183 93.9226 697.264 93.9226C698.189 93.9226 698.996 94.1107 699.686 94.4869C700.392 94.8631 700.932 95.3568 701.309 95.9682V94.1107H705.329V107.231H701.309V105.373C700.917 105.984 700.368 106.478 699.663 106.854C698.973 107.231 698.166 107.419 697.241 107.419C696.175 107.419 695.203 107.144 694.325 106.596C693.448 106.031 692.75 105.24 692.233 104.221C691.731 103.186 691.48 101.995 691.48 100.647ZM701.309 100.671C701.309 99.6674 701.026 98.8758 700.462 98.2959C699.913 97.7159 699.239 97.4259 698.44 97.4259C697.641 97.4259 696.959 97.7159 696.394 98.2959C695.846 98.8602 695.572 99.6439 695.572 100.647C695.572 101.65 695.846 102.45 696.394 103.045C696.959 103.625 697.641 103.915 698.44 103.915C699.239 103.915 699.913 103.625 700.462 103.045C701.026 102.465 701.309 101.674 701.309 100.671Z" fill="black"/>
<path d="M714.751 107.419C713.606 107.419 712.588 107.223 711.694 106.831C710.801 106.439 710.095 105.906 709.578 105.232C709.061 104.542 708.771 103.774 708.708 102.928H712.682C712.729 103.382 712.94 103.751 713.316 104.033C713.693 104.315 714.155 104.456 714.704 104.456C715.205 104.456 715.589 104.362 715.856 104.174C716.138 103.97 716.279 103.712 716.279 103.398C716.279 103.022 716.083 102.748 715.691 102.575C715.299 102.387 714.665 102.183 713.787 101.964C712.846 101.744 712.062 101.517 711.436 101.282C710.809 101.031 710.268 100.647 709.813 100.13C709.359 99.5969 709.131 98.8837 709.131 97.9902C709.131 97.2378 709.335 96.556 709.743 95.9447C710.166 95.3177 710.777 94.8239 711.577 94.4634C712.392 94.1029 713.356 93.9226 714.469 93.9226C716.114 93.9226 717.408 94.3301 718.348 95.1452C719.304 95.9603 719.853 97.0419 719.994 98.3899H716.279C716.216 97.9354 716.013 97.5748 715.668 97.3084C715.339 97.0419 714.9 96.9087 714.351 96.9087C713.881 96.9087 713.52 97.0027 713.269 97.1908C713.019 97.3632 712.893 97.6062 712.893 97.9197C712.893 98.2959 713.089 98.578 713.481 98.7661C713.889 98.9542 714.516 99.1423 715.362 99.3304C716.334 99.5812 717.125 99.832 717.737 100.083C718.348 100.318 718.881 100.71 719.336 101.258C719.806 101.791 720.049 102.512 720.064 103.422C720.064 104.19 719.845 104.879 719.406 105.491C718.983 106.086 718.364 106.557 717.549 106.901C716.749 107.246 715.817 107.419 714.751 107.419Z" fill="black"/>
<path d="M735.76 103.469L738.605 94.1107H742.884L738.228 107.231H733.267L728.612 94.1107H732.915L735.76 103.469Z" fill="black"/>
<path d="M751.724 107.419C750.439 107.419 749.279 107.144 748.244 106.596C747.225 106.047 746.418 105.263 745.822 104.244C745.242 103.226 744.952 102.034 744.952 100.671C744.952 99.3226 745.25 98.1391 745.846 97.1203C746.441 96.0857 747.257 95.2941 748.291 94.7455C749.326 94.1969 750.486 93.9226 751.771 93.9226C753.056 93.9226 754.216 94.1969 755.251 94.7455C756.285 95.2941 757.1 96.0857 757.696 97.1203C758.292 98.1391 758.589 99.3226 758.589 100.671C758.589 102.019 758.284 103.21 757.673 104.244C757.077 105.263 756.254 106.047 755.204 106.596C754.169 107.144 753.009 107.419 751.724 107.419ZM751.724 103.939C752.492 103.939 753.142 103.657 753.675 103.092C754.224 102.528 754.498 101.721 754.498 100.671C754.498 99.6204 754.232 98.8131 753.699 98.2489C753.182 97.6846 752.539 97.4024 751.771 97.4024C750.987 97.4024 750.337 97.6846 749.819 98.2489C749.302 98.7975 749.044 99.6047 749.044 100.671C749.044 101.721 749.294 102.528 749.796 103.092C750.313 103.657 750.956 103.939 751.724 103.939Z" fill="black"/>
<path d="M761.099 100.671C761.099 99.3069 761.373 98.1156 761.922 97.0968C762.486 96.0779 763.262 95.2941 764.249 94.7455C765.253 94.1969 766.397 93.9226 767.682 93.9226C769.328 93.9226 770.7 94.3537 771.797 95.2158C772.91 96.0779 773.639 97.2927 773.983 98.8602H769.704C769.344 97.857 768.646 97.3554 767.612 97.3554C766.875 97.3554 766.287 97.6454 765.848 98.2253C765.409 98.7896 765.19 99.6047 765.19 100.671C765.19 101.737 765.409 102.559 765.848 103.139C766.287 103.704 766.875 103.986 767.612 103.986C768.646 103.986 769.344 103.484 769.704 102.481H773.983C773.639 104.017 772.91 105.224 771.797 106.102C770.684 106.98 769.312 107.419 767.682 107.419C766.397 107.419 765.253 107.144 764.249 106.596C763.262 106.047 762.486 105.263 761.922 104.244C761.373 103.226 761.099 102.034 761.099 100.671Z" fill="black"/>
<path d="M789.677 100.459C789.677 100.835 789.654 101.227 789.607 101.635H780.507C780.57 102.45 780.829 103.077 781.283 103.516C781.753 103.939 782.326 104.15 783 104.15C784.003 104.15 784.7 103.727 785.092 102.881H789.371C789.152 103.743 788.752 104.519 788.172 105.208C787.608 105.898 786.895 106.439 786.033 106.831C785.171 107.223 784.207 107.419 783.141 107.419C781.855 107.419 780.711 107.144 779.708 106.596C778.705 106.047 777.921 105.263 777.357 104.244C776.792 103.226 776.51 102.034 776.51 100.671C776.51 99.3069 776.785 98.1156 777.333 97.0968C777.897 96.0779 778.681 95.2941 779.684 94.7455C780.688 94.1969 781.84 93.9226 783.141 93.9226C784.41 93.9226 785.539 94.1891 786.526 94.722C787.514 95.255 788.282 96.0152 788.831 97.0027C789.395 97.9902 789.677 99.1423 789.677 100.459ZM785.562 99.401C785.562 98.7113 785.327 98.1626 784.857 97.7551C784.387 97.3475 783.799 97.1438 783.094 97.1438C782.42 97.1438 781.848 97.3397 781.377 97.7316C780.923 98.1235 780.641 98.6799 780.531 99.401H785.562Z" fill="black"/>
<path d="M798.311 107.419C797.167 107.419 796.148 107.223 795.254 106.831C794.361 106.439 793.656 105.906 793.138 105.232C792.621 104.542 792.331 103.774 792.268 102.928H796.242C796.289 103.382 796.501 103.751 796.877 104.033C797.253 104.315 797.715 104.456 798.264 104.456C798.766 104.456 799.15 104.362 799.416 104.174C799.698 103.97 799.839 103.712 799.839 103.398C799.839 103.022 799.643 102.748 799.252 102.575C798.86 102.387 798.225 102.183 797.347 101.964C796.407 101.744 795.623 101.517 794.996 101.282C794.369 101.031 793.828 100.647 793.374 100.13C792.919 99.5969 792.692 98.8837 792.692 97.9902C792.692 97.2378 792.895 96.556 793.303 95.9447C793.726 95.3177 794.338 94.8239 795.137 94.4634C795.952 94.1029 796.916 93.9226 798.029 93.9226C799.675 93.9226 800.968 94.3301 801.908 95.1452C802.865 95.9603 803.413 97.0419 803.554 98.3899H799.839C799.777 97.9354 799.573 97.5748 799.228 97.3084C798.899 97.0419 798.46 96.9087 797.911 96.9087C797.441 96.9087 797.081 97.0027 796.83 97.1908C796.579 97.3632 796.454 97.6062 796.454 97.9197C796.454 98.2959 796.65 98.578 797.041 98.7661C797.449 98.9542 798.076 99.1423 798.922 99.3304C799.894 99.5812 800.686 99.832 801.297 100.083C801.908 100.318 802.441 100.71 802.896 101.258C803.366 101.791 803.609 102.512 803.625 103.422C803.625 104.19 803.405 104.879 802.967 105.491C802.543 106.086 801.924 106.557 801.109 106.901C800.31 107.246 799.377 107.419 798.311 107.419Z" fill="black"/>
<path d="M812.619 100.647C812.619 99.2991 812.87 98.1156 813.371 97.0968C813.889 96.0779 814.586 95.2941 815.464 94.7455C816.342 94.1969 817.321 93.9226 818.403 93.9226C819.265 93.9226 820.049 94.1029 820.754 94.4634C821.475 94.8239 822.04 95.3098 822.447 95.9211V89.8315H826.468V107.231H822.447V105.35C822.071 105.977 821.53 106.478 820.825 106.854C820.135 107.231 819.328 107.419 818.403 107.419C817.321 107.419 816.342 107.144 815.464 106.596C814.586 106.031 813.889 105.24 813.371 104.221C812.87 103.186 812.619 101.995 812.619 100.647ZM822.447 100.671C822.447 99.6674 822.165 98.8758 821.601 98.2959C821.052 97.7159 820.378 97.4259 819.579 97.4259C818.779 97.4259 818.097 97.7159 817.533 98.2959C816.984 98.8602 816.71 99.6439 816.71 100.647C816.71 101.65 816.984 102.45 817.533 103.045C818.097 103.625 818.779 103.915 819.579 103.915C820.378 103.915 821.052 103.625 821.601 103.045C822.165 102.465 822.447 101.674 822.447 100.671Z" fill="black"/>
<path d="M842.919 100.459C842.919 100.835 842.896 101.227 842.849 101.635H833.75C833.812 102.45 834.071 103.077 834.526 103.516C834.996 103.939 835.568 104.15 836.242 104.15C837.245 104.15 837.943 103.727 838.335 102.881H842.614C842.394 103.743 841.995 104.519 841.415 105.208C840.85 105.898 840.137 106.439 839.275 106.831C838.413 107.223 837.449 107.419 836.383 107.419C835.098 107.419 833.954 107.144 832.95 106.596C831.947 106.047 831.163 105.263 830.599 104.244C830.035 103.226 829.753 102.034 829.753 100.671C829.753 99.3069 830.027 98.1156 830.576 97.0968C831.14 96.0779 831.924 95.2941 832.927 94.7455C833.93 94.1969 835.082 93.9226 836.383 93.9226C837.653 93.9226 838.781 94.1891 839.769 94.722C840.756 95.255 841.524 96.0152 842.073 97.0027C842.637 97.9902 842.919 99.1423 842.919 100.459ZM838.805 99.401C838.805 98.7113 838.57 98.1626 838.099 97.7551C837.629 97.3475 837.041 97.1438 836.336 97.1438C835.662 97.1438 835.09 97.3397 834.62 97.7316C834.165 98.1235 833.883 98.6799 833.773 99.401H838.805Z" fill="black"/>
<path d="M850.237 89.8315V107.231H846.216V89.8315H850.237Z" fill="black"/>
<path d="M859.685 100.671C859.685 99.3069 859.959 98.1156 860.508 97.0968C861.072 96.0779 861.848 95.2941 862.836 94.7455C863.839 94.1969 864.983 93.9226 866.268 93.9226C867.914 93.9226 869.286 94.3537 870.383 95.2158C871.496 96.0779 872.225 97.2927 872.57 98.8602H868.29C867.93 97.857 867.232 97.3554 866.198 97.3554C865.461 97.3554 864.873 97.6454 864.434 98.2253C863.995 98.7896 863.776 99.6047 863.776 100.671C863.776 101.737 863.995 102.559 864.434 103.139C864.873 103.704 865.461 103.986 866.198 103.986C867.232 103.986 867.93 103.484 868.29 102.481H872.57C872.225 104.017 871.496 105.224 870.383 106.102C869.27 106.98 867.898 107.419 866.268 107.419C864.983 107.419 863.839 107.144 862.836 106.596C861.848 106.047 861.072 105.263 860.508 104.244C859.959 103.226 859.685 102.034 859.685 100.671Z" fill="black"/>
<path d="M875.096 100.647C875.096 99.2991 875.347 98.1156 875.849 97.0968C876.366 96.0779 877.064 95.2941 877.941 94.7455C878.819 94.1969 879.799 93.9226 880.88 93.9226C881.805 93.9226 882.612 94.1107 883.302 94.4869C884.008 94.8631 884.548 95.3568 884.925 95.9682V94.1107H888.945V107.231H884.925V105.373C884.533 105.984 883.984 106.478 883.279 106.854C882.589 107.231 881.782 107.419 880.857 107.419C879.791 107.419 878.819 107.144 877.941 106.596C877.064 106.031 876.366 105.24 875.849 104.221C875.347 103.186 875.096 101.995 875.096 100.647ZM884.925 100.671C884.925 99.6674 884.642 98.8758 884.078 98.2959C883.529 97.7159 882.855 97.4259 882.056 97.4259C881.257 97.4259 880.575 97.7159 880.01 98.2959C879.462 98.8602 879.188 99.6439 879.188 100.647C879.188 101.65 879.462 102.45 880.01 103.045C880.575 103.625 881.257 103.915 882.056 103.915C882.855 103.915 883.529 103.625 884.078 103.045C884.642 102.465 884.925 101.674 884.925 100.671Z" fill="black"/>
<path d="M909.77 93.9696C911.4 93.9696 912.694 94.4634 913.65 95.4509C914.622 96.4384 915.107 97.81 915.107 99.5655V107.231H911.11V100.106C911.11 99.2599 910.883 98.6094 910.429 98.1548C909.99 97.6846 909.378 97.4494 908.595 97.4494C907.811 97.4494 907.192 97.6846 906.737 98.1548C906.298 98.6094 906.079 99.2599 906.079 100.106V107.231H902.082V100.106C902.082 99.2599 901.854 98.6094 901.4 98.1548C900.961 97.6846 900.35 97.4494 899.566 97.4494C898.782 97.4494 898.163 97.6846 897.708 98.1548C897.269 98.6094 897.05 99.2599 897.05 100.106V107.231H893.029V94.1107H897.05V95.7566C897.458 95.2079 897.991 94.7769 898.649 94.4634C899.307 94.1342 900.052 93.9696 900.883 93.9696C901.87 93.9696 902.748 94.1812 903.516 94.6045C904.3 95.0277 904.911 95.6312 905.35 96.4149C905.804 95.6939 906.424 95.106 907.207 94.6515C907.991 94.1969 908.845 93.9696 909.77 93.9696Z" fill="black"/>
<path d="M923.116 95.9682C923.492 95.3568 924.033 94.8631 924.738 94.4869C925.443 94.1107 926.251 93.9226 927.16 93.9226C928.241 93.9226 929.221 94.1969 930.099 94.7455C930.976 95.2941 931.666 96.0779 932.168 97.0968C932.685 98.1156 932.944 99.2991 932.944 100.647C932.944 101.995 932.685 103.186 932.168 104.221C931.666 105.24 930.976 106.031 930.099 106.596C929.221 107.144 928.241 107.419 927.16 107.419C926.235 107.419 925.428 107.238 924.738 106.878C924.048 106.502 923.507 106.008 923.116 105.397V107.231H919.095V89.8315H923.116V95.9682ZM928.853 100.647C928.853 99.6439 928.57 98.8602 928.006 98.2959C927.457 97.7159 926.776 97.4259 925.961 97.4259C925.161 97.4259 924.479 97.7159 923.915 98.2959C923.366 98.8758 923.092 99.6674 923.092 100.671C923.092 101.674 923.366 102.465 923.915 103.045C924.479 103.625 925.161 103.915 925.961 103.915C926.76 103.915 927.442 103.625 928.006 103.045C928.57 102.45 928.853 101.65 928.853 100.647Z" fill="black"/>
<path d="M938.251 92.747C937.545 92.747 936.965 92.5432 936.511 92.1357C936.072 91.7124 935.852 91.1952 935.852 90.5839C935.852 89.9569 936.072 89.4396 936.511 89.032C936.965 88.6088 937.545 88.3972 938.251 88.3972C938.94 88.3972 939.505 88.6088 939.944 89.032C940.398 89.4396 940.625 89.9569 940.625 90.5839C940.625 91.1952 940.398 91.7124 939.944 92.1357C939.505 92.5432 938.94 92.747 938.251 92.747ZM940.249 94.1107V107.231H936.229V94.1107H940.249Z" fill="black"/>
<path d="M950.311 107.419C949.025 107.419 947.865 107.144 946.831 106.596C945.812 106.047 945.005 105.263 944.409 104.244C943.829 103.226 943.539 102.034 943.539 100.671C943.539 99.3226 943.837 98.1391 944.433 97.1203C945.028 96.0857 945.843 95.2941 946.878 94.7455C947.912 94.1969 949.072 93.9226 950.358 93.9226C951.643 93.9226 952.803 94.1969 953.837 94.7455C954.872 95.2941 955.687 96.0857 956.283 97.1203C956.878 98.1391 957.176 99.3226 957.176 100.671C957.176 102.019 956.871 103.21 956.259 104.244C955.664 105.263 954.841 106.047 953.79 106.596C952.756 107.144 951.596 107.419 950.311 107.419ZM950.311 103.939C951.079 103.939 951.729 103.657 952.262 103.092C952.811 102.528 953.085 101.721 953.085 100.671C953.085 99.6204 952.819 98.8131 952.286 98.2489C951.768 97.6846 951.126 97.4024 950.358 97.4024C949.574 97.4024 948.923 97.6846 948.406 98.2489C947.889 98.7975 947.63 99.6047 947.63 100.671C947.63 101.721 947.881 102.528 948.383 103.092C948.9 103.657 949.543 103.939 950.311 103.939Z" fill="black"/>
<path d="M971.98 107.419C970.836 107.419 969.817 107.223 968.924 106.831C968.03 106.439 967.325 105.906 966.808 105.232C966.29 104.542 966 103.774 965.938 102.928H969.911C969.958 103.382 970.17 103.751 970.546 104.033C970.922 104.315 971.385 104.456 971.933 104.456C972.435 104.456 972.819 104.362 973.085 104.174C973.368 103.97 973.509 103.712 973.509 103.398C973.509 103.022 973.313 102.748 972.921 102.575C972.529 102.387 971.894 102.183 971.016 101.964C970.076 101.744 969.292 101.517 968.665 101.282C968.038 101.031 967.497 100.647 967.043 100.13C966.588 99.5969 966.361 98.8837 966.361 97.9902C966.361 97.2378 966.565 96.556 966.972 95.9447C967.395 95.3177 968.007 94.8239 968.806 94.4634C969.621 94.1029 970.585 93.9226 971.698 93.9226C973.344 93.9226 974.637 94.3301 975.578 95.1452C976.534 95.9603 977.082 97.0419 977.224 98.3899H973.509C973.446 97.9354 973.242 97.5748 972.897 97.3084C972.568 97.0419 972.129 96.9087 971.581 96.9087C971.11 96.9087 970.75 97.0027 970.499 97.1908C970.248 97.3632 970.123 97.6062 970.123 97.9197C970.123 98.2959 970.319 98.578 970.711 98.7661C971.118 98.9542 971.745 99.1423 972.592 99.3304C973.563 99.5812 974.355 99.832 974.966 100.083C975.578 100.318 976.111 100.71 976.565 101.258C977.035 101.791 977.278 102.512 977.294 103.422C977.294 104.19 977.075 104.879 976.636 105.491C976.213 106.086 975.593 106.557 974.778 106.901C973.979 107.246 973.046 107.419 971.98 107.419Z" fill="black"/>
<path d="M986.902 107.419C985.616 107.419 984.456 107.144 983.422 106.596C982.403 106.047 981.596 105.263 981 104.244C980.42 103.226 980.13 102.034 980.13 100.671C980.13 99.3226 980.428 98.1391 981.023 97.1203C981.619 96.0857 982.434 95.2941 983.469 94.7455C984.503 94.1969 985.663 93.9226 986.949 93.9226C988.234 93.9226 989.394 94.1969 990.428 94.7455C991.463 95.2941 992.278 96.0857 992.874 97.1203C993.469 98.1391 993.767 99.3226 993.767 100.671C993.767 102.019 993.461 103.21 992.85 104.244C992.255 105.263 991.432 106.047 990.381 106.596C989.347 107.144 988.187 107.419 986.902 107.419ZM986.902 103.939C987.67 103.939 988.32 103.657 988.853 103.092C989.402 102.528 989.676 101.721 989.676 100.671C989.676 99.6204 989.41 98.8131 988.877 98.2489C988.359 97.6846 987.717 97.4024 986.949 97.4024C986.165 97.4024 985.514 97.6846 984.997 98.2489C984.48 98.7975 984.221 99.6047 984.221 100.671C984.221 101.721 984.472 102.528 984.974 103.092C985.491 103.657 986.133 103.939 986.902 103.939Z" fill="black"/>
<path d="M996.276 100.671C996.276 99.3069 996.551 98.1156 997.099 97.0968C997.664 96.0779 998.439 95.2941 999.427 94.7455C1000.43 94.1969 1001.57 93.9226 1002.86 93.9226C1004.51 93.9226 1005.88 94.3537 1006.97 95.2158C1008.09 96.0779 1008.82 97.2927 1009.16 98.8602H1004.88C1004.52 97.857 1003.82 97.3554 1002.79 97.3554C1002.05 97.3554 1001.46 97.6454 1001.03 98.2253C1000.59 98.7896 1000.37 99.6047 1000.37 100.671C1000.37 101.737 1000.59 102.559 1001.03 103.139C1001.46 103.704 1002.05 103.986 1002.79 103.986C1003.82 103.986 1004.52 103.484 1004.88 102.481H1009.16C1008.82 104.017 1008.09 105.224 1006.97 106.102C1005.86 106.98 1004.49 107.419 1002.86 107.419C1001.57 107.419 1000.43 107.144 999.427 106.596C998.439 106.047 997.664 105.263 997.099 104.244C996.551 103.226 996.276 102.034 996.276 100.671Z" fill="black"/>
<path d="M1014.51 92.747C1013.8 92.747 1013.22 92.5432 1012.77 92.1357C1012.33 91.7124 1012.11 91.1952 1012.11 90.5839C1012.11 89.9569 1012.33 89.4396 1012.77 89.032C1013.22 88.6088 1013.8 88.3972 1014.51 88.3972C1015.2 88.3972 1015.76 88.6088 1016.2 89.032C1016.66 89.4396 1016.88 89.9569 1016.88 90.5839C1016.88 91.1952 1016.66 91.7124 1016.2 92.1357C1015.76 92.5432 1015.2 92.747 1014.51 92.747ZM1016.51 94.1107V107.231H1012.49V94.1107H1016.51Z" fill="black"/>
<path d="M1019.8 100.647C1019.8 99.2991 1020.05 98.1156 1020.55 97.0968C1021.07 96.0779 1021.76 95.2941 1022.64 94.7455C1023.52 94.1969 1024.5 93.9226 1025.58 93.9226C1026.51 93.9226 1027.31 94.1107 1028 94.4869C1028.71 94.8631 1029.25 95.3568 1029.63 95.9682V94.1107H1033.65V107.231H1029.63V105.373C1029.23 105.984 1028.69 106.478 1027.98 106.854C1027.29 107.231 1026.48 107.419 1025.56 107.419C1024.49 107.419 1023.52 107.144 1022.64 106.596C1021.76 106.031 1021.07 105.24 1020.55 104.221C1020.05 103.186 1019.8 101.995 1019.8 100.647ZM1029.63 100.671C1029.63 99.6674 1029.34 98.8758 1028.78 98.2959C1028.23 97.7159 1027.56 97.4259 1026.76 97.4259C1025.96 97.4259 1025.28 97.7159 1024.71 98.2959C1024.16 98.8602 1023.89 99.6439 1023.89 100.647C1023.89 101.65 1024.16 102.45 1024.71 103.045C1025.28 103.625 1025.96 103.915 1026.76 103.915C1027.56 103.915 1028.23 103.625 1028.78 103.045C1029.34 102.465 1029.63 101.674 1029.63 100.671Z" fill="black"/>
<path d="M1041.75 89.8315V107.231H1037.73V89.8315H1041.75Z" fill="black"/>
</svg>
